<?xml version="1.0" encoding="UTF-8"?>
<svg xmlns="http://www.w3.org/2000/svg" width="252" height="190" viewBox="0 0 252 190" fill="none">
  <path d="M21.297 146.158L32.8576 119.902H42.594V120.978H41.425C39.8636 120.978 38.8443 121.108 38.3589 121.367C37.8735 121.625 37.5499 122.103 37.3881 122.807C37.2263 123.51 37.1413 125.177 37.1413 127.814V143.375C37.1413 145.871 37.202 147.505 37.3274 148.278C37.4528 149.051 37.7683 149.625 38.2739 149.997C38.7795 150.373 39.7503 150.559 41.1863 150.559H42.5899V151.635H27.4252V150.559H28.5497C29.8927 150.559 30.823 150.39 31.3448 150.046C31.8666 149.702 32.2024 149.168 32.352 148.444C32.5017 147.72 32.5745 146.029 32.5745 143.38V123.187L20.0107 151.639H18.9104L6.24955 123.187V141.766C6.24955 144.31 6.3264 146.041 6.48416 146.959C6.63787 147.882 7.12327 148.687 7.93632 149.382C8.74532 150.078 9.88601 150.47 11.3544 150.563V151.639H0V150.563C1.35912 150.487 2.45937 150.114 3.31287 149.451C4.16232 148.788 4.68008 147.975 4.8702 147.008C5.05627 146.041 5.1493 144.245 5.1493 141.624V127.818C5.1493 125.29 5.07649 123.66 4.92683 122.928C4.77716 122.196 4.4657 121.686 3.99243 121.407C3.51512 121.128 2.47555 120.986 0.869678 120.986H0.00404501V119.91H9.66758L21.297 146.167V146.158Z" fill="#4B0108"></path>
  <path d="M44.7425 120.982V119.906H59.2519V120.982H58.5724C57.011 120.982 55.9916 121.112 55.5062 121.371C55.0208 121.629 54.6972 122.107 54.5354 122.811C54.3736 123.514 54.2887 125.181 54.2887 127.818V143.379C54.2887 145.875 54.3494 147.509 54.4626 148.282C54.5799 149.055 54.8914 149.629 55.397 150.001C55.9027 150.377 56.8735 150.563 58.3094 150.563H59.2438V151.639H44.7344V150.563H45.6688C47.0279 150.563 47.9663 150.394 48.4881 150.05C49.01 149.706 49.3416 149.172 49.4832 148.448C49.6248 147.724 49.6936 146.033 49.6936 143.384V127.822C49.6936 125.294 49.6248 123.664 49.4832 122.932C49.3416 122.2 49.0302 121.69 48.5488 121.411C48.0634 121.132 47.0198 120.99 45.4139 120.99H44.7344L44.7425 120.982Z" fill="#4B0108"></path>
  <path d="M95.3119 151.635H86.7688C85.256 150.576 82.9382 147.797 79.8195 143.307C78.8204 141.871 77.7848 140.495 76.7089 139.177C75.6329 137.858 74.8927 137.057 74.4841 136.766C74.0796 136.479 73.4445 136.333 72.587 136.333H71.325V143.375C71.325 145.871 71.3816 147.505 71.4989 148.278C71.6162 149.051 71.9277 149.625 72.4333 149.997C72.9389 150.373 73.9097 150.559 75.3457 150.559H76.8666V151.635H61.6816V150.559H62.7131C64.0682 150.559 65.0107 150.39 65.5325 150.046C66.0543 149.702 66.386 149.168 66.5276 148.444C66.6691 147.72 66.7379 146.029 66.7379 143.38V127.818C66.7379 125.29 66.6691 123.66 66.5276 122.928C66.386 122.196 66.0745 121.686 65.5932 121.407C65.1078 121.128 64.0642 120.986 62.4583 120.986H61.9203V119.91L66.4588 119.676C69.4845 119.534 71.8872 119.465 73.667 119.465C76.6927 119.465 79.1561 119.745 81.0492 120.307C82.9463 120.869 84.4753 121.791 85.6483 123.07C86.8174 124.348 87.4039 125.877 87.4039 127.657C87.4039 129.732 86.6394 131.503 85.1104 132.968C83.5813 134.436 81.3364 135.346 78.3714 135.706C79.6981 136.345 81.8339 138.655 84.7827 142.631C87.1855 145.859 89.0745 147.975 90.4457 148.974C91.817 149.973 93.439 150.503 95.3119 150.563V151.639V151.635ZM71.325 135.253C72.494 135.221 73.7034 135.176 74.9533 135.112C76.1992 135.051 77.2833 134.877 78.2055 134.598C79.1237 134.319 79.8721 133.906 80.4384 133.368C81.0087 132.83 81.4577 132.122 81.7854 131.249C82.113 130.375 82.2748 129.299 82.2748 128.021C82.2748 125.792 81.7166 124.004 80.6002 122.661C79.4837 121.318 77.0567 120.651 73.3111 120.651C72.7326 120.651 72.0692 120.683 71.3209 120.744V135.253H71.325Z" fill="#4B0108"></path>
  <path d="M116.091 139.933H104.041L103.224 141.944C102.007 144.86 101.4 146.765 101.4 147.655C101.4 148.606 101.724 149.33 102.371 149.819C103.018 150.309 103.847 150.555 104.863 150.555V151.631H95.4336V150.555C96.8372 150.337 97.8808 149.843 98.5685 149.071C99.2561 148.298 100.081 146.672 101.048 144.193C101.125 143.958 101.501 143.056 102.173 141.478L111.391 119.457H112.305L122.907 144.658L124.359 147.979C124.687 148.727 125.128 149.318 125.682 149.746C126.236 150.175 127.066 150.446 128.174 150.555V151.631H115.703V150.555C117.232 150.555 118.264 150.442 118.806 150.216C119.344 149.989 119.615 149.54 119.615 148.869C119.615 148.525 119.255 147.505 118.539 145.802L116.104 139.929L116.091 139.933ZM115.691 138.881L110.077 125.355L104.482 138.881H115.691Z" fill="#4B0108"></path>
  <path d="M162.072 146.158L173.633 119.902H183.369V120.978H182.2C180.639 120.978 179.62 121.108 179.134 121.367C178.649 121.625 178.325 122.103 178.163 122.807C178.002 123.51 177.917 125.177 177.917 127.814V143.375C177.917 145.871 177.977 147.505 178.103 148.278C178.228 149.051 178.544 149.625 179.049 149.997C179.555 150.373 180.526 150.559 181.962 150.559H183.365V151.635H168.2V150.559H169.325C170.668 150.559 171.598 150.39 172.12 150.046C172.642 149.702 172.978 149.168 173.127 148.444C173.277 147.72 173.35 146.029 173.35 143.38V123.187L160.786 151.639H159.686L147.025 123.187V141.766C147.025 144.31 147.102 146.041 147.259 146.959C147.413 147.882 147.899 148.687 148.712 149.382C149.521 150.078 150.661 150.47 152.13 150.563V151.639H140.779V150.563C142.138 150.487 143.239 150.114 144.092 149.451C144.942 148.788 145.459 147.975 145.649 147.008C145.836 146.041 145.929 144.245 145.929 141.624V127.818C145.929 125.29 145.856 123.66 145.706 122.928C145.556 122.196 145.245 121.686 144.772 121.407C144.294 121.128 143.255 120.986 141.649 120.986H140.783V119.91H150.447L162.076 146.167L162.072 146.158Z" fill="#4B0108"></path>
  <path d="M204.965 139.933H192.914L192.097 141.944C190.88 144.86 190.273 146.765 190.273 147.655C190.273 148.606 190.597 149.33 191.244 149.819C191.891 150.309 192.72 150.555 193.736 150.555V151.631H184.307V150.555C185.71 150.337 186.754 149.843 187.442 149.071C188.129 148.298 188.954 146.672 189.921 144.193C189.998 143.958 190.374 143.056 191.046 141.478L200.264 119.457H201.178L211.78 144.658L213.233 147.979C213.56 148.727 214.001 149.318 214.555 149.746C215.109 150.175 215.939 150.446 217.047 150.555V151.631H204.576V150.555C206.105 150.555 207.137 150.442 207.679 150.216C208.217 149.989 208.488 149.54 208.488 148.869C208.488 148.525 208.128 147.505 207.412 145.802L204.977 139.929L204.965 139.933ZM204.564 138.881L198.95 125.355L193.355 138.881H204.564Z" fill="#4B0108"></path>
  <path d="M251.576 151.635H243.032C241.52 150.576 239.202 147.797 236.083 143.307C235.084 141.871 234.049 140.495 232.973 139.177C231.897 137.858 231.156 137.057 230.748 136.766C230.343 136.479 229.708 136.333 228.851 136.333H227.589V143.375C227.589 145.871 227.645 147.505 227.763 148.278C227.88 149.051 228.191 149.625 228.697 149.997C229.203 150.373 230.173 150.559 231.609 150.559H233.13V151.635H217.945V150.559H218.977C220.336 150.559 221.274 150.39 221.796 150.046C222.318 149.702 222.65 149.168 222.791 148.444C222.933 147.72 223.002 146.029 223.002 143.38V127.818C223.002 125.29 222.933 123.66 222.791 122.928C222.65 122.196 222.338 121.686 221.857 121.407C221.371 121.128 220.328 120.986 218.722 120.986H218.184V119.91L222.722 119.676C225.748 119.534 228.151 119.465 229.931 119.465C232.956 119.465 235.42 119.745 237.313 120.307C239.21 120.869 240.739 121.791 241.912 123.07C243.081 124.348 243.668 125.877 243.668 127.657C243.668 129.732 242.903 131.503 241.374 132.968C239.845 134.436 237.6 135.346 234.635 135.706C235.962 136.345 238.098 138.655 241.046 142.631C243.449 145.859 245.338 147.975 246.709 148.974C248.081 149.973 249.703 150.503 251.576 150.563V151.639V151.635ZM227.593 135.253C228.762 135.221 229.971 135.176 231.221 135.112C232.467 135.051 233.555 134.877 234.473 134.598C235.391 134.319 236.14 133.906 236.71 133.368C237.28 132.83 237.729 132.122 238.057 131.249C238.385 130.375 238.547 129.299 238.547 128.021C238.547 125.792 237.988 124.004 236.872 122.661C235.756 121.318 233.329 120.651 229.583 120.651C229.004 120.651 228.341 120.683 227.593 120.744V135.253Z" fill="#4B0108"></path>
  <path d="M150.199 0H166.634L166.618 1.3389C163.208 1.96992 159.398 3.40995 158.848 7.29721L158.823 56.6585C159.175 61.6501 162.177 62.629 166.63 63.1791V64.5301L141.713 64.162L141.571 63.0254C144.383 63.0658 147.473 61.8483 148.852 59.2756C149.067 58.8752 149.674 57.3017 149.674 56.9457V10.0559L130.096 49.0741L128.373 51.9946C130.262 55.716 132.167 59.49 134.545 62.9242C137.494 67.1796 141.935 72.244 147.724 70.8282L147.704 72.159C146.959 72.426 146.158 72.515 145.378 72.608C140.52 73.1986 135.435 73.0449 131.228 70.2862C127.604 67.9077 125.476 64.1701 123.187 60.6226C120.335 65.6142 116.597 71.0992 110.538 72.2844C108.358 72.7091 106.246 72.697 104.062 72.3208L104.054 70.9779C105.097 70.9051 106.254 71.0749 107.282 70.9779C112.666 70.4601 116.011 66.14 118.584 61.8685C119.073 61.0595 121.205 57.33 121.16 56.6545C117.892 49.1752 113.855 42.0681 110.134 34.8154C105.951 26.6647 101.801 18.4978 97.6061 10.3552L97.4565 10.877C98.043 24.5937 96.6758 38.9616 97.4484 52.6014C97.5697 54.7574 98.2007 57.8356 99.4304 59.6195C101.117 62.0627 104.576 62.9728 107.415 63.0456L107.642 63.9719L84.5488 64.6717L84.7309 63.1993C87.5421 62.4955 90.7215 61.9656 92.3233 59.312C93.9656 56.5938 94.3418 51.8611 94.4632 48.6939C94.9809 35.0784 94.091 21.1109 94.4187 7.45901C93.909 3.68905 87.9952 1.68273 84.7025 1.49261V0.149666H102.339L126.686 46.7927L150.199 0Z" fill="#4B0108"></path>
  <path d="M83.4924 177.778C83.4924 178.519 83.359 179.243 83.096 179.959C82.8331 180.671 82.465 181.31 81.9998 181.872C81.5346 182.434 80.9764 182.887 80.3373 183.231C79.6942 183.575 78.9863 183.745 78.2096 183.745C77.1013 183.745 76.2155 183.421 75.5561 182.766C74.8968 182.115 74.5651 181.233 74.5651 180.124C74.5651 179.243 74.7592 178.389 75.1476 177.564C75.5359 176.739 76.0617 175.962 76.7332 175.238C77.4006 174.518 78.1854 173.859 79.0834 173.272C79.9814 172.682 80.94 172.176 81.9634 171.755C82.9828 171.335 84.0466 171.007 85.1468 170.776C86.2471 170.546 87.3271 170.433 88.3829 170.433C89.1393 170.433 89.92 170.493 90.7209 170.619C91.5218 170.74 92.2135 170.954 92.796 171.254C92.9699 171.185 93.1762 171.104 93.4027 171.015C93.6333 170.926 93.8719 170.845 94.1308 170.764C94.3857 170.683 94.6365 170.615 94.8832 170.554C95.1299 170.493 95.3605 170.453 95.5709 170.437L95.5992 170.594C95.1785 170.647 94.7578 170.752 94.3452 170.91C93.9326 171.068 93.5483 171.246 93.1964 171.44C94.5353 172.196 95.2028 173.288 95.2028 174.716C95.2028 175.651 95.0207 176.448 94.6607 177.107C94.3007 177.766 93.8234 178.304 93.2328 178.717C92.6423 179.129 91.9708 179.429 91.2103 179.615C90.4539 179.801 89.6773 179.894 88.8844 179.894V179.946C89.4305 180.177 89.8391 180.48 90.1141 180.857C90.3851 181.237 90.5227 181.722 90.5227 182.321C90.5227 182.709 90.4377 183.183 90.2719 183.749C90.106 184.311 89.9159 184.894 89.7056 185.492C89.4952 186.075 89.3011 186.633 89.1231 187.171C88.9451 187.709 88.8602 188.154 88.8602 188.506C88.8602 189.068 89.115 189.351 89.6247 189.351C90.1344 189.351 90.7654 189.169 91.4611 188.809C92.1569 188.449 92.893 187.891 93.6656 187.13C95.0207 185.812 96.299 184.198 97.4963 182.297L97.7349 182.402C97.3304 183.037 96.8491 183.745 96.2949 184.529C95.7407 185.314 95.0652 186.111 94.2724 186.92C92.529 188.752 90.9191 189.667 89.4386 189.667C88.8238 189.667 88.3343 189.517 87.9743 189.218C87.6143 188.918 87.4323 188.469 87.4323 187.871C87.4323 187.482 87.5334 187.017 87.7357 186.471C87.9379 185.925 88.1604 185.363 88.4112 184.78C88.6579 184.198 88.8763 183.619 89.0705 183.037C89.2647 182.454 89.3618 181.945 89.3618 181.504C89.3618 180.836 89.1797 180.395 88.8197 180.185C88.4597 179.975 87.9864 179.825 87.408 179.736L87.5132 179.473C87.7073 179.51 87.8934 179.534 88.0673 179.554C88.2413 179.57 88.4274 179.582 88.6215 179.582C89.3982 179.582 90.102 179.437 90.733 179.146C91.3681 178.854 91.9101 178.458 92.3591 177.956C92.8081 177.455 93.156 176.868 93.4027 176.201C93.6495 175.533 93.7708 174.817 93.7708 174.061C93.7708 173.62 93.6859 173.199 93.52 172.795C93.3542 172.39 93.1034 172.063 92.7677 171.816C91.8697 172.346 91.0121 173.151 90.191 174.231C89.3739 175.315 88.5528 176.52 87.7357 177.851C86.9186 179.182 86.0812 180.541 85.2277 181.933C84.3742 183.324 83.4722 184.594 82.5216 185.751C81.5711 186.904 80.5598 187.846 79.4838 188.579C78.4079 189.311 77.2388 189.675 75.9728 189.675C75.6896 189.675 75.3984 189.638 75.1031 189.57C74.8037 189.501 74.5368 189.388 74.2981 189.238C74.0595 189.088 73.8613 188.894 73.7035 188.655C73.5457 188.417 73.4648 188.142 73.4648 187.822C73.4648 187.503 73.5619 187.252 73.7561 187.058C73.9502 186.863 74.2132 186.766 74.5489 186.766C74.7957 186.766 74.9939 186.847 75.1435 187.005C75.2932 187.163 75.366 187.357 75.366 187.588C75.366 187.798 75.3053 188 75.1799 188.194C75.0586 188.388 74.8725 188.477 74.6258 188.457C74.6784 188.688 74.8644 188.894 75.1799 189.076C75.4954 189.262 75.8595 189.355 76.264 189.355C77.1782 189.355 78.0357 188.999 78.8407 188.287C79.6416 187.575 80.4344 186.653 81.2191 185.529C82.0039 184.4 82.7846 183.15 83.5693 181.779C84.354 180.404 85.1873 179.057 86.0772 177.738C86.9671 176.419 87.9258 175.202 88.9572 174.093C89.9887 172.985 91.1254 172.132 92.3793 171.533C91.7969 171.234 91.1456 171.031 90.4256 170.926C89.7015 170.821 88.9977 170.768 88.3141 170.768C87.4323 170.768 86.506 170.865 85.5271 171.06C84.5482 171.254 83.5895 171.537 82.647 171.905C81.7045 172.273 80.8025 172.734 79.9409 173.28C79.0793 173.826 78.3189 174.457 77.6676 175.169C77.0164 175.881 76.4946 176.666 76.1103 177.519C75.722 178.373 75.5278 179.303 75.5278 180.306C75.5278 181.31 75.7665 182.042 76.2397 182.604C76.717 183.166 77.3845 183.449 78.2461 183.449C79.0025 183.449 79.6861 183.276 80.2928 182.92C80.8996 182.568 81.4214 182.119 81.8502 181.573C82.283 181.027 82.6106 180.42 82.8412 179.752C83.0718 179.085 83.185 178.434 83.185 177.799H83.5005L83.4924 177.778Z" fill="#4B0108"></path>
  <path d="M106.602 182.402C106.339 182.843 106.008 183.328 105.611 183.854C105.215 184.384 104.766 184.906 104.264 185.427C103.763 185.945 103.225 186.447 102.654 186.932C102.08 187.418 101.489 187.846 100.871 188.227C100.256 188.607 99.6328 188.906 99.0098 189.125C98.3829 189.343 97.7721 189.456 97.1734 189.456C96.4332 189.456 95.8628 189.266 95.4583 188.89C95.0538 188.51 94.8516 187.972 94.8516 187.264C94.8516 186.487 95.0862 185.674 95.5513 184.821C96.0165 183.967 96.6111 183.178 97.3352 182.458C98.0552 181.734 98.848 181.14 99.7137 180.662C100.575 180.189 101.404 179.951 102.197 179.951C102.638 179.951 102.982 180.044 103.229 180.23C103.476 180.416 103.597 180.683 103.597 181.035C103.597 181.455 103.366 181.868 102.909 182.264C102.452 182.661 101.894 183.021 101.231 183.348C100.571 183.676 99.8633 183.963 99.1029 184.222C98.3465 184.477 97.675 184.667 97.0965 184.788C96.9024 185.14 96.7446 185.537 96.6192 185.978C96.4938 186.418 96.4332 186.859 96.4332 187.296C96.4332 187.507 96.4534 187.717 96.4979 187.915C96.5424 188.117 96.6111 188.303 96.7082 188.469C96.8053 188.635 96.9347 188.773 97.1046 188.878C97.2705 188.983 97.4768 189.036 97.7235 189.036C98.306 189.036 98.9856 188.845 99.7703 188.469C100.555 188.089 101.352 187.583 102.161 186.952C102.97 186.317 103.747 185.597 104.487 184.788C105.227 183.979 105.862 183.142 106.388 182.28L106.598 182.414L106.602 182.402ZM102.327 181.002C102.327 180.755 102.262 180.569 102.129 180.448C101.995 180.327 101.833 180.262 101.639 180.262C101.271 180.262 100.871 180.408 100.438 180.699C100.005 180.99 99.5802 181.35 99.1555 181.783C98.7348 182.216 98.3505 182.677 98.0067 183.17C97.6628 183.664 97.404 184.105 97.226 184.489C97.6143 184.42 98.0957 184.283 98.6781 184.08C99.2606 183.878 99.8188 183.627 100.357 183.328C100.895 183.029 101.356 182.681 101.744 182.284C102.133 181.888 102.327 181.463 102.327 181.002Z" fill="#4B0108"></path>
  <path d="M115.318 182.43C114.788 183.275 114.177 184.117 113.481 184.954C112.786 185.791 112.025 186.544 111.196 187.211C110.367 187.879 109.465 188.421 108.49 188.837C107.511 189.25 106.471 189.456 105.359 189.456C104.938 189.456 104.542 189.404 104.17 189.299C103.802 189.193 103.478 189.036 103.207 188.821C102.936 188.607 102.714 188.34 102.548 188.016C102.382 187.693 102.297 187.308 102.297 186.867C102.297 186.427 102.447 185.998 102.746 185.626C103.045 185.258 103.45 185.071 103.959 185.071C104.222 185.071 104.441 185.136 104.607 185.27C104.772 185.403 104.857 185.601 104.857 185.864C104.857 186.111 104.797 186.321 104.671 186.499C104.55 186.677 104.364 186.762 104.117 186.762C103.923 186.762 103.769 186.71 103.656 186.605C103.543 186.499 103.466 186.366 103.434 186.208C103.239 186.313 103.106 186.467 103.037 186.669C102.968 186.871 102.932 187.078 102.932 187.288C102.932 187.903 103.167 188.368 103.632 188.676C104.097 188.983 104.623 189.137 105.205 189.137C105.573 189.137 105.897 189.06 106.168 188.91C106.439 188.761 106.67 188.566 106.856 188.328C107.042 188.089 107.175 187.814 107.264 187.494C107.353 187.179 107.398 186.859 107.398 186.544C107.398 186.208 107.341 185.86 107.228 185.5C107.114 185.14 106.985 184.784 106.843 184.432C106.702 184.08 106.568 183.733 106.447 183.389C106.322 183.045 106.261 182.725 106.261 182.426C106.261 182.038 106.342 181.69 106.5 181.382C106.657 181.075 106.872 180.816 107.147 180.602C107.418 180.391 107.733 180.23 108.085 180.112C108.437 179.999 108.805 179.942 109.194 179.942C109.897 179.942 110.472 180.096 110.909 180.404C111.35 180.711 111.568 181.119 111.568 181.633C111.568 182.09 111.398 182.426 111.054 182.636C110.71 182.847 110.326 182.952 109.906 182.952C110.011 182.758 110.104 182.527 110.185 182.252C110.266 181.981 110.302 181.73 110.302 181.5C110.302 181.148 110.193 180.853 109.97 180.614C109.752 180.375 109.436 180.258 109.032 180.258C108.522 180.258 108.142 180.412 107.895 180.719C107.648 181.026 107.527 181.403 107.527 181.844C107.527 182.232 107.592 182.6 107.725 182.952C107.859 183.304 108.012 183.656 108.186 184.008C108.344 184.36 108.49 184.72 108.623 185.092C108.757 185.464 108.821 185.876 108.821 186.333C108.821 186.669 108.745 186.989 108.595 187.296C108.445 187.604 108.247 187.887 108 188.142C107.754 188.396 107.474 188.615 107.167 188.789C106.86 188.967 106.548 189.08 106.229 189.133L106.281 189.185C107.232 189.08 108.138 188.801 109.004 188.352C109.865 187.903 110.67 187.357 111.418 186.714C112.167 186.071 112.858 185.367 113.493 184.602C114.129 183.838 114.683 183.085 115.156 182.345L115.314 182.426L115.318 182.43Z" fill="#4B0108"></path>
  <path d="M118.117 180.157C117.15 181.548 116.329 182.717 115.662 183.668C114.994 184.619 114.452 185.411 114.036 186.046C113.623 186.681 113.324 187.183 113.138 187.551C112.952 187.919 112.858 188.219 112.858 188.449C112.858 188.906 113.045 189.137 113.413 189.137C113.781 189.137 114.173 189.007 114.642 188.753C115.108 188.498 115.597 188.166 116.107 187.761C116.616 187.357 117.126 186.9 117.64 186.386C118.149 185.877 118.631 185.371 119.08 184.869C119.529 184.368 119.925 183.882 120.269 183.417C120.613 182.952 120.864 182.568 121.021 182.268L121.232 182.402C121.021 182.754 120.734 183.178 120.374 183.668C120.014 184.161 119.606 184.667 119.144 185.185C118.687 185.703 118.202 186.22 117.692 186.73C117.183 187.24 116.661 187.697 116.135 188.105C115.605 188.51 115.091 188.837 114.59 189.084C114.088 189.331 113.627 189.452 113.202 189.452C112.725 189.452 112.373 189.319 112.147 189.056C111.92 188.793 111.803 188.502 111.803 188.186C111.803 187.814 111.888 187.426 112.054 187.009C112.219 186.597 112.49 186.091 112.858 185.492C113.227 184.894 113.708 184.165 114.299 183.312C114.889 182.458 115.597 181.407 116.426 180.157H118.117ZM119.65 175.246C119.897 175.246 120.099 175.331 120.257 175.497C120.415 175.663 120.495 175.869 120.495 176.116C120.495 176.363 120.415 176.569 120.257 176.735C120.099 176.901 119.897 176.986 119.65 176.986C119.403 176.986 119.201 176.901 119.043 176.735C118.886 176.569 118.805 176.363 118.805 176.116C118.805 175.869 118.886 175.663 119.043 175.497C119.201 175.331 119.403 175.246 119.65 175.246Z" fill="#4B0108"></path>
  <path d="M135.733 170.967C135.045 172.059 134.297 173.212 133.488 174.425C132.679 175.639 131.866 176.848 131.057 178.045C130.248 179.243 129.467 180.4 128.719 181.52C127.971 182.636 127.307 183.664 126.725 184.598C126.142 185.533 125.681 186.338 125.337 187.013C124.994 187.693 124.824 188.19 124.824 188.506C124.824 188.7 124.872 188.854 124.969 188.967C125.066 189.08 125.212 189.137 125.406 189.137C125.847 189.137 126.349 188.963 126.911 188.607C127.473 188.255 128.153 187.701 128.946 186.944C129.633 186.277 130.301 185.533 130.952 184.712C131.603 183.894 132.165 183.085 132.643 182.297L132.853 182.402C132.695 182.685 132.489 183.013 132.234 183.393C131.979 183.773 131.696 184.165 131.389 184.57C131.081 184.974 130.75 185.383 130.398 185.8C130.046 186.212 129.686 186.605 129.314 186.977C128.61 187.701 127.914 188.291 127.226 188.761C126.539 189.226 125.904 189.46 125.325 189.46C124.747 189.46 124.342 189.343 124.071 189.104C123.796 188.866 123.663 188.562 123.663 188.194C123.663 187.859 123.732 187.535 123.873 187.215C124.015 186.9 124.156 186.617 124.294 186.37L124.241 186.342C123.958 186.657 123.647 186.997 123.303 187.357C122.959 187.717 122.595 188.057 122.207 188.372C121.818 188.688 121.41 188.951 120.977 189.153C120.544 189.355 120.099 189.456 119.642 189.456C119.007 189.456 118.522 189.262 118.178 188.874C117.834 188.486 117.664 188.028 117.664 187.499C117.664 186.758 117.919 185.949 118.429 185.067C118.938 184.186 119.577 183.369 120.342 182.612C121.106 181.856 121.932 181.221 122.809 180.711C123.691 180.201 124.508 179.946 125.265 179.946C125.827 179.946 126.276 180.124 126.612 180.476C126.947 180.828 127.105 181.277 127.089 181.823H127.17L133.986 170.967H135.729H135.733ZM126.357 181.848C126.357 181.427 126.288 181.055 126.146 180.739C126.005 180.424 125.681 180.262 125.168 180.262C124.816 180.262 124.423 180.383 123.99 180.63C123.558 180.877 123.125 181.204 122.684 181.609C122.243 182.013 121.818 182.475 121.402 182.996C120.989 183.518 120.621 184.044 120.305 184.582C119.99 185.12 119.731 185.642 119.541 186.152C119.347 186.661 119.25 187.118 119.25 187.527C119.25 187.895 119.318 188.206 119.46 188.453C119.602 188.7 119.856 188.821 120.225 188.821C120.54 188.821 120.908 188.7 121.321 188.453C121.733 188.206 122.17 187.887 122.627 187.49C123.084 187.094 123.533 186.641 123.974 186.131C124.415 185.622 124.812 185.112 125.164 184.598C125.515 184.089 125.803 183.591 126.021 183.106C126.239 182.62 126.353 182.204 126.353 181.852L126.357 181.848Z" fill="#4B0108"></path>
  <path d="M141.782 182.402C141.519 182.843 141.187 183.328 140.791 183.854C140.395 184.384 139.946 184.906 139.444 185.427C138.942 185.945 138.404 186.447 137.834 186.932C137.26 187.418 136.669 187.846 136.05 188.227C135.435 188.607 134.812 188.906 134.19 189.125C133.563 189.343 132.952 189.456 132.353 189.456C131.613 189.456 131.043 189.266 130.638 188.89C130.234 188.51 130.031 187.972 130.031 187.264C130.031 186.487 130.266 185.674 130.731 184.821C131.196 183.967 131.791 183.178 132.515 182.458C133.235 181.734 134.028 181.14 134.893 180.662C135.755 180.189 136.584 179.951 137.377 179.951C137.818 179.951 138.162 180.044 138.408 180.23C138.655 180.416 138.777 180.683 138.777 181.035C138.777 181.455 138.546 181.868 138.089 182.264C137.632 182.661 137.074 183.021 136.41 183.348C135.751 183.676 135.043 183.963 134.283 184.222C133.526 184.477 132.855 184.667 132.276 184.788C132.082 185.14 131.924 185.537 131.799 185.978C131.674 186.418 131.613 186.859 131.613 187.296C131.613 187.507 131.633 187.717 131.678 187.915C131.722 188.117 131.791 188.303 131.888 188.469C131.985 188.635 132.114 188.773 132.284 188.878C132.45 188.983 132.656 189.036 132.903 189.036C133.486 189.036 134.165 188.845 134.95 188.469C135.735 188.089 136.532 187.583 137.341 186.952C138.15 186.317 138.926 185.597 139.666 184.788C140.407 183.979 141.042 183.142 141.568 182.28L141.778 182.414L141.782 182.402ZM137.506 181.002C137.506 180.755 137.442 180.569 137.308 180.448C137.175 180.327 137.013 180.262 136.819 180.262C136.451 180.262 136.05 180.408 135.617 180.699C135.185 180.99 134.76 181.35 134.335 181.783C133.914 182.216 133.53 182.677 133.186 183.17C132.843 183.664 132.584 184.105 132.406 184.489C132.794 184.42 133.275 184.283 133.858 184.08C134.44 183.878 134.999 183.627 135.537 183.328C136.075 183.029 136.536 182.681 136.924 182.284C137.312 181.888 137.506 181.463 137.506 181.002Z" fill="#4B0108"></path>
  <path d="M144.183 180.157L140.696 184.991L140.749 185.043C141.117 184.602 141.55 184.089 142.043 183.498C142.537 182.907 143.062 182.349 143.629 181.819C144.191 181.289 144.778 180.848 145.384 180.484C145.991 180.124 146.594 179.942 147.192 179.942C147.722 179.942 148.131 180.088 148.422 180.379C148.713 180.67 148.859 181.043 148.859 181.504C148.859 181.787 148.758 182.119 148.556 182.507C148.353 182.895 148.103 183.308 147.803 183.749C147.504 184.19 147.176 184.639 146.824 185.096C146.472 185.553 146.145 185.99 145.845 186.402C145.546 186.815 145.295 187.195 145.093 187.539C144.891 187.883 144.79 188.17 144.79 188.396C144.79 188.89 145.036 189.137 145.53 189.137C146.092 189.137 146.691 188.947 147.326 188.57C147.961 188.19 148.717 187.555 149.599 186.657C149.951 186.305 150.307 185.917 150.667 185.496C151.027 185.075 151.375 184.655 151.711 184.242C152.046 183.83 152.35 183.437 152.621 183.065C152.892 182.697 153.11 182.39 153.268 182.139L153.454 182.244C153.102 182.774 152.649 183.401 152.095 184.133C151.541 184.865 150.938 185.581 150.287 186.285C149.899 186.706 149.502 187.114 149.098 187.498C148.693 187.887 148.289 188.227 147.884 188.514C147.48 188.805 147.079 189.036 146.683 189.201C146.286 189.367 145.894 189.452 145.506 189.452C144.996 189.452 144.571 189.311 144.24 189.032C143.904 188.748 143.738 188.364 143.738 187.871C143.738 187.341 143.948 186.766 144.373 186.139C144.794 185.516 145.263 184.885 145.773 184.25C146.282 183.615 146.752 183.009 147.172 182.43C147.593 181.848 147.807 181.338 147.807 180.897C147.807 180.687 147.738 180.529 147.597 180.42C147.455 180.315 147.269 180.262 147.043 180.262C146.602 180.262 146.108 180.424 145.562 180.751C145.016 181.079 144.458 181.508 143.884 182.046C143.309 182.584 142.739 183.182 142.169 183.842C141.594 184.501 141.064 185.16 140.571 185.824C140.077 186.483 139.636 187.118 139.252 187.725C138.864 188.332 138.572 188.837 138.382 189.242H136.744C137.201 188.465 137.691 187.68 138.208 186.88C138.726 186.079 139.244 185.286 139.754 184.501C140.263 183.716 140.753 182.96 141.218 182.228C141.683 181.496 142.104 180.832 142.472 180.234L144.187 180.153L144.183 180.157Z" fill="#4B0108"></path>
  <path d="M162.12 182.612C161.716 183.263 161.182 183.963 160.522 184.712C159.863 185.46 159.143 186.16 158.37 186.811C157.42 187.604 156.469 188.243 155.519 188.724C154.568 189.21 153.634 189.452 152.719 189.452C152.068 189.452 151.522 189.282 151.081 188.939C150.64 188.595 150.422 188.089 150.422 187.422C150.422 186.576 150.665 185.715 151.15 184.833C151.635 183.951 152.242 183.146 152.974 182.418C153.706 181.69 154.507 181.095 155.377 180.634C156.247 180.177 157.072 179.947 157.844 179.947C158.354 179.947 158.799 180.04 159.179 180.226C159.56 180.412 159.746 180.731 159.746 181.188C159.746 181.399 159.689 181.577 159.576 181.718C159.462 181.86 159.321 181.973 159.155 182.062C158.989 182.151 158.803 182.216 158.601 182.26C158.399 182.305 158.217 182.337 158.059 182.353C158.128 182.179 158.192 181.997 158.245 181.811C158.298 181.625 158.326 181.439 158.326 181.245C158.326 180.594 158.018 180.266 157.4 180.266C156.942 180.266 156.4 180.489 155.773 180.942C155.146 181.391 154.56 181.957 154.002 182.645C153.448 183.332 152.974 184.089 152.59 184.918C152.202 185.747 152.008 186.548 152.008 187.321C152.008 187.798 152.117 188.202 152.339 188.534C152.558 188.87 152.897 189.036 153.355 189.036C153.969 189.036 154.677 188.833 155.482 188.429C156.283 188.024 157.064 187.523 157.82 186.924C158.613 186.309 159.373 185.601 160.106 184.797C160.838 183.996 161.449 183.215 161.942 182.458L162.128 182.616L162.12 182.612Z" fill="#4B0108"></path>
  <path d="M171.098 182.402C170.835 182.843 170.504 183.328 170.107 183.854C169.711 184.384 169.262 184.906 168.76 185.427C168.259 185.945 167.721 186.447 167.15 186.932C166.576 187.418 165.986 187.846 165.367 188.227C164.752 188.607 164.129 188.906 163.506 189.125C162.879 189.343 162.268 189.456 161.669 189.456C160.929 189.456 160.359 189.266 159.954 188.89C159.55 188.51 159.348 187.972 159.348 187.264C159.348 186.487 159.582 185.674 160.047 184.821C160.513 183.967 161.107 183.178 161.831 182.458C162.551 181.734 163.344 181.14 164.21 180.662C165.071 180.189 165.901 179.951 166.693 179.951C167.134 179.951 167.478 180.044 167.725 180.23C167.972 180.416 168.093 180.683 168.093 181.035C168.093 181.455 167.862 181.868 167.405 182.264C166.948 182.661 166.39 183.021 165.727 183.348C165.067 183.676 164.359 183.963 163.599 184.222C162.843 184.477 162.171 184.667 161.593 184.788C161.398 185.14 161.241 185.537 161.115 185.978C160.99 186.418 160.929 186.859 160.929 187.296C160.929 187.507 160.949 187.717 160.994 187.915C161.038 188.117 161.107 188.303 161.204 188.469C161.301 188.635 161.431 188.773 161.601 188.878C161.767 188.983 161.973 189.036 162.22 189.036C162.802 189.036 163.482 188.845 164.266 188.469C165.051 188.089 165.848 187.583 166.657 186.952C167.466 186.317 168.243 185.597 168.983 184.788C169.723 183.979 170.358 183.142 170.884 182.28L171.094 182.414L171.098 182.402ZM166.819 181.002C166.819 180.755 166.754 180.569 166.621 180.448C166.487 180.327 166.325 180.262 166.131 180.262C165.763 180.262 165.363 180.408 164.93 180.699C164.497 180.99 164.072 181.35 163.648 181.783C163.227 182.216 162.843 182.677 162.499 183.17C162.155 183.664 161.896 184.105 161.718 184.489C162.106 184.42 162.588 184.283 163.17 184.08C163.753 183.878 164.311 183.627 164.849 183.328C165.387 183.029 165.848 182.681 166.236 182.284C166.625 181.888 166.819 181.463 166.819 181.002Z" fill="#4B0108"></path>
  <path d="M179.812 182.43C179.282 183.275 178.671 184.117 177.975 184.954C177.28 185.791 176.519 186.544 175.69 187.211C174.861 187.879 173.959 188.421 172.984 188.837C172.005 189.25 170.965 189.456 169.853 189.456C169.432 189.456 169.036 189.404 168.664 189.299C168.296 189.193 167.972 189.036 167.701 188.821C167.43 188.607 167.208 188.34 167.042 188.016C166.876 187.693 166.791 187.308 166.791 186.867C166.791 186.427 166.941 185.998 167.24 185.626C167.539 185.258 167.944 185.071 168.454 185.071C168.716 185.071 168.935 185.136 169.101 185.27C169.267 185.403 169.352 185.601 169.352 185.864C169.352 186.111 169.291 186.321 169.165 186.499C169.044 186.677 168.858 186.762 168.611 186.762C168.417 186.762 168.263 186.71 168.15 186.605C168.037 186.499 167.96 186.366 167.928 186.208C167.734 186.313 167.6 186.467 167.531 186.669C167.462 186.871 167.426 187.078 167.426 187.288C167.426 187.903 167.661 188.368 168.126 188.676C168.591 188.983 169.117 189.137 169.699 189.137C170.067 189.137 170.391 189.06 170.662 188.91C170.933 188.761 171.164 188.566 171.35 188.328C171.536 188.089 171.669 187.814 171.758 187.494C171.847 187.179 171.892 186.859 171.892 186.544C171.892 186.208 171.835 185.86 171.722 185.5C171.609 185.14 171.479 184.784 171.338 184.432C171.196 184.08 171.063 183.733 170.941 183.389C170.816 183.045 170.755 182.725 170.755 182.426C170.755 182.038 170.836 181.69 170.994 181.382C171.152 181.075 171.366 180.816 171.641 180.602C171.912 180.391 172.228 180.23 172.579 180.112C172.931 179.999 173.299 179.942 173.688 179.942C174.392 179.942 174.966 180.096 175.403 180.404C175.844 180.711 176.062 181.119 176.062 181.633C176.062 182.09 175.892 182.426 175.548 182.636C175.205 182.847 174.82 182.952 174.4 182.952C174.505 182.758 174.598 182.527 174.679 182.252C174.76 181.981 174.796 181.73 174.796 181.5C174.796 181.148 174.687 180.853 174.464 180.614C174.246 180.375 173.93 180.258 173.526 180.258C173.016 180.258 172.636 180.412 172.389 180.719C172.143 181.026 172.021 181.403 172.021 181.844C172.021 182.232 172.086 182.6 172.219 182.952C172.353 183.304 172.507 183.656 172.681 184.008C172.838 184.36 172.984 184.72 173.117 185.092C173.251 185.464 173.316 185.876 173.316 186.333C173.316 186.669 173.239 186.989 173.089 187.296C172.939 187.604 172.741 187.887 172.494 188.142C172.248 188.396 171.969 188.615 171.661 188.789C171.354 188.967 171.042 189.08 170.723 189.133L170.775 189.185C171.726 189.08 172.632 188.801 173.498 188.352C174.359 187.903 175.164 187.357 175.913 186.714C176.661 186.071 177.353 185.367 177.988 184.602C178.623 183.838 179.177 183.085 179.65 182.345L179.808 182.426L179.812 182.43Z" fill="#4B0108"></path>
  <path d="M27.4531 31.3043H33.0312V32.6594H28.9134V34.8073H31.931V36.1017H28.9134V38.6137H33.2658V39.9404H27.4531V31.3043Z" fill="#4B0108"></path>
  <path d="M38.3499 39.9444C37.9858 39.8392 37.6582 39.6896 37.3629 39.4954C37.0717 39.3053 36.8168 39.0747 36.5984 38.8077C36.38 38.5367 36.202 38.2414 36.0645 37.9138L37.2213 37.303C37.4802 37.8127 37.8038 38.1889 38.2002 38.4356C38.5926 38.6823 39.0618 38.8077 39.6038 38.8077C39.8668 38.8077 40.1054 38.7875 40.3198 38.743C40.5382 38.6985 40.7243 38.6338 40.878 38.5408C41.0317 38.4477 41.149 38.3345 41.234 38.1929C41.3189 38.0513 41.3634 37.8855 41.3634 37.6913C41.3634 37.4972 41.327 37.3394 41.2582 37.1978C41.1895 37.0563 41.0762 36.9268 40.9185 36.8095C40.7648 36.6922 40.5625 36.583 40.3117 36.4819C40.0609 36.3807 39.7616 36.2796 39.4016 36.1704C39.1225 36.0895 38.8596 36.0086 38.6007 35.9236C38.3458 35.8387 38.1031 35.7457 37.8807 35.6445C37.6582 35.5475 37.4519 35.4342 37.2699 35.3088C37.0878 35.1834 36.9301 35.0378 36.8047 34.876C36.6753 34.7142 36.5741 34.5241 36.5013 34.3137C36.4285 34.0993 36.3921 33.8566 36.3921 33.5856C36.3921 33.2175 36.4649 32.8818 36.6065 32.5825C36.7481 32.2831 36.9503 32.0243 37.2132 31.8139C37.4721 31.5995 37.7795 31.4377 38.1436 31.3204C38.5036 31.2031 38.9041 31.1465 39.345 31.1465C39.7859 31.1465 40.154 31.195 40.4937 31.2962C40.8335 31.3973 41.1369 31.5267 41.4039 31.6966C41.6708 31.8665 41.8974 32.0607 42.0915 32.2831C42.2816 32.5056 42.4475 32.7483 42.5769 32.9991L41.5171 33.7353C41.2542 33.3025 40.9427 32.9829 40.5787 32.7807C40.2146 32.5784 39.802 32.4773 39.3328 32.4773C38.8636 32.4773 38.4793 32.5622 38.2164 32.7321C37.9535 32.902 37.824 33.1447 37.824 33.4562C37.824 33.6584 37.8645 33.8283 37.9454 33.9739C38.0263 34.1155 38.1476 34.2409 38.3175 34.3542C38.4793 34.4634 38.6897 34.5645 38.9485 34.6576C39.2034 34.7506 39.5108 34.8477 39.8627 34.9528C40.2672 35.0742 40.6515 35.2036 41.0075 35.3412C41.3634 35.4787 41.6749 35.6445 41.9419 35.8427C42.2088 36.045 42.4192 36.2837 42.5729 36.5668C42.7266 36.85 42.8034 37.1897 42.8034 37.5942C42.8034 37.9462 42.7306 38.2778 42.585 38.5853C42.4394 38.8927 42.2291 39.1597 41.9499 39.3821C41.6708 39.6087 41.327 39.7907 40.9225 39.9201C40.518 40.0496 40.0609 40.1183 39.5472 40.1183C39.1184 40.1183 38.722 40.0657 38.358 39.9606L38.3499 39.9444Z" fill="#4B0108"></path>
  <path d="M47.9663 32.6594H45.3047V31.3043H52.0841V32.6594H49.4225V39.9404H47.9623V32.6594H47.9663Z" fill="#4B0108"></path>
  <path d="M53.7949 38.4236H55.4089V39.9405H53.7949V38.4236Z" fill="#4B0108"></path>
  <path d="M190.834 38.6582H192.424V32.7888C192.319 32.8414 192.201 32.894 192.072 32.9385C191.943 32.987 191.809 33.0275 191.672 33.0599C191.53 33.0963 191.392 33.1286 191.251 33.1488C191.109 33.1691 190.98 33.1812 190.854 33.1812V31.8666C191.19 31.8544 191.494 31.8059 191.765 31.7129C192.04 31.6198 192.27 31.4863 192.464 31.3043H193.836V38.6582H195.247V39.9404H190.826V38.6582H190.834Z" fill="#4B0108"></path>
  <path d="M199.956 40.0457C199.738 40.0052 199.536 39.9526 199.35 39.8879C199.16 39.8232 198.986 39.7504 198.832 39.6654C198.678 39.5805 198.541 39.4955 198.423 39.4025L199.123 38.3265C199.321 38.4721 199.548 38.5935 199.811 38.6987C200.07 38.8038 200.369 38.8564 200.709 38.8564C201.049 38.8564 201.332 38.7877 201.599 38.6461C201.866 38.5045 202.096 38.3063 202.29 38.0434C202.485 37.7845 202.638 37.473 202.747 37.1049C202.861 36.7368 202.925 36.3242 202.946 35.8672C202.8 36.0006 202.646 36.122 202.476 36.2353C202.311 36.3485 202.133 36.4456 201.947 36.5265C201.756 36.6155 201.554 36.6802 201.344 36.7287C201.129 36.7773 200.907 36.8016 200.672 36.8016C200.264 36.8016 199.888 36.7409 199.552 36.6236C199.212 36.5063 198.925 36.3323 198.686 36.1058C198.444 35.8793 198.253 35.5961 198.124 35.2564C197.99 34.9206 197.926 34.5283 197.926 34.0833C197.926 33.6384 198.007 33.2541 198.173 32.8941C198.338 32.5341 198.561 32.2226 198.848 31.9597C199.127 31.7008 199.459 31.5026 199.839 31.357C200.219 31.2154 200.624 31.1426 201.053 31.1426C201.546 31.1426 201.999 31.2316 202.408 31.4136C202.816 31.5956 203.168 31.8626 203.463 32.2266C203.755 32.5866 203.981 33.0397 204.143 33.5777C204.305 34.1197 204.386 34.7507 204.386 35.4707C204.386 36.2312 204.285 36.8986 204.086 37.4771C203.888 38.0555 203.617 38.5369 203.281 38.9252C202.942 39.3176 202.549 39.6088 202.092 39.807C201.635 40.0052 201.158 40.1023 200.652 40.1023C200.409 40.1023 200.179 40.0821 199.96 40.0416L199.956 40.0457ZM201.546 35.5152C201.744 35.4667 201.934 35.406 202.108 35.3251C202.282 35.2483 202.44 35.1593 202.586 35.0582C202.727 34.957 202.845 34.8478 202.938 34.7386C202.905 34.322 202.84 33.966 202.735 33.6707C202.63 33.3754 202.493 33.1327 202.323 32.9426C202.153 32.7565 201.955 32.619 201.728 32.5341C201.502 32.4451 201.251 32.4046 200.98 32.4046C200.45 32.4046 200.041 32.5462 199.75 32.8334C199.459 33.1165 199.313 33.521 199.313 34.0429C199.313 34.2653 199.342 34.4757 199.398 34.6658C199.455 34.8559 199.548 35.0177 199.677 35.1552C199.803 35.2928 199.969 35.3979 200.179 35.4788C200.389 35.5557 200.644 35.5961 200.947 35.5961C201.154 35.5961 201.356 35.5719 201.554 35.5233L201.546 35.5152Z" fill="#4B0108"></path>
  <path d="M207.209 39.7504C207.209 39.4389 207.241 39.1275 207.31 38.82C207.379 38.5126 207.512 38.1971 207.711 37.8776C207.905 37.558 208.176 37.2304 208.532 36.8946C208.884 36.5589 209.345 36.207 209.915 35.8429C210.247 35.6285 210.526 35.4384 210.756 35.2726C210.987 35.1067 211.177 34.9409 211.327 34.7831C211.476 34.6254 211.582 34.4595 211.65 34.2896C211.719 34.1197 211.752 33.9215 211.752 33.6991C211.752 33.4968 211.719 33.3188 211.654 33.1651C211.59 33.0114 211.501 32.8779 211.379 32.7727C211.262 32.6716 211.121 32.5907 210.955 32.5381C210.789 32.4815 210.603 32.4572 210.401 32.4572C210.02 32.4572 209.656 32.5664 209.304 32.7889C208.952 33.0114 208.641 33.3229 208.366 33.7274L207.282 32.9831C207.456 32.7161 207.65 32.4734 207.864 32.2469C208.079 32.0244 208.317 31.8303 208.58 31.6644C208.843 31.5026 209.13 31.3732 209.442 31.2842C209.753 31.1952 210.097 31.1507 210.469 31.1507C210.89 31.1507 211.27 31.2114 211.606 31.3287C211.942 31.446 212.225 31.6118 212.459 31.8222C212.69 32.0406 212.868 32.2954 212.993 32.5988C213.119 32.8981 213.179 33.2339 213.179 33.602C213.179 33.8649 213.151 34.1116 213.094 34.3463C213.038 34.5809 212.933 34.8155 212.779 35.042C212.625 35.2726 212.419 35.5072 212.156 35.7458C211.893 35.9845 211.553 36.2312 211.141 36.4942C210.797 36.7126 210.494 36.9148 210.231 37.113C209.968 37.3113 209.749 37.4973 209.567 37.6753C209.381 37.8533 209.236 38.0232 209.13 38.189C209.025 38.3508 208.952 38.5126 208.912 38.6663H213.224V39.9486H207.209V39.7625V39.7504Z" fill="#4B0108"></path>
  <path d="M216.236 39.7504C216.236 39.4389 216.269 39.1275 216.337 38.82C216.406 38.5126 216.54 38.1971 216.738 37.8776C216.932 37.558 217.203 37.2304 217.559 36.8946C217.911 36.5589 218.372 36.207 218.942 35.8429C219.274 35.6285 219.553 35.4384 219.784 35.2726C220.014 35.1067 220.204 34.9409 220.354 34.7831C220.504 34.6254 220.609 34.4595 220.678 34.2896C220.747 34.1197 220.779 33.9215 220.779 33.6991C220.779 33.4968 220.747 33.3188 220.682 33.1651C220.617 33.0114 220.528 32.8779 220.407 32.7727C220.289 32.6716 220.148 32.5907 219.982 32.5381C219.816 32.4815 219.63 32.4572 219.428 32.4572C219.048 32.4572 218.684 32.5664 218.332 32.7889C217.98 33.0114 217.668 33.3229 217.393 33.7274L216.309 32.9831C216.483 32.7161 216.677 32.4734 216.892 32.2469C217.106 32.0244 217.345 31.8303 217.608 31.6644C217.871 31.5026 218.158 31.3732 218.469 31.2842C218.781 31.1952 219.124 31.1507 219.497 31.1507C219.917 31.1507 220.298 31.2114 220.633 31.3287C220.969 31.446 221.252 31.6118 221.487 31.8222C221.717 32.0406 221.895 32.2954 222.021 32.5988C222.142 32.8981 222.207 33.2339 222.207 33.602C222.207 33.8649 222.178 34.1116 222.122 34.3463C222.065 34.5809 221.96 34.8155 221.81 35.042C221.657 35.2726 221.45 35.5072 221.187 35.7458C220.924 35.9845 220.585 36.2312 220.172 36.4942C219.828 36.7126 219.525 36.9148 219.262 37.113C219.003 37.3072 218.781 37.4973 218.599 37.6753C218.413 37.8533 218.267 38.0232 218.162 38.189C218.057 38.3508 217.984 38.5126 217.943 38.6663H222.255V39.9486H216.24V39.7625L216.236 39.7504Z" fill="#4B0108"></path>
</svg>