<?xml version="1.0" encoding="UTF-8"?>
<svg xmlns="http://www.w3.org/2000/svg" id="Layer_1" version="1.1" viewBox="0 0 349 323">
  <defs>
    
  </defs>
  <path fill="#F3ECE7" class="st0" d="M30.69,201.75l15.96-36.24h13.44v1.49h-1.61c-2.16,0-3.56.18-4.23.54-.67.36-1.12,1.02-1.34,1.99-.22.97-.34,3.27-.34,6.91v21.48c0,3.45.08,5.7.26,6.77.17,1.07.61,1.86,1.31,2.37.7.52,2.04.78,4.02.78h1.94v1.49h-20.93v-1.49h1.55c1.85,0,3.14-.24,3.86-.71.72-.48,1.18-1.21,1.39-2.21.21-1,.31-3.33.31-6.99v-27.87l-17.34,39.28h-1.52l-17.48-39.28v25.65c0,3.51.11,5.9.32,7.17.21,1.27.88,2.38,2,3.35,1.12.96,2.69,1.5,4.72,1.63v1.49H1.29v-1.49c1.88-.11,3.39-.62,4.57-1.53,1.17-.92,1.89-2.04,2.15-3.37.26-1.33.39-3.81.39-7.43v-19.06c0-3.49-.1-5.74-.31-6.75-.21-1.01-.64-1.71-1.29-2.1-.66-.38-2.09-.58-4.31-.58h-1.19v-1.49h13.34l16.05,36.24h0Z"></path>
  <path fill="#F3ECE7" class="st0" d="M63.05,167v-1.49h20.03v1.49h-.94c-2.16,0-3.56.18-4.23.54-.67.36-1.12,1.02-1.34,1.99-.22.97-.34,3.27-.34,6.91v21.48c0,3.45.08,5.7.24,6.77.16,1.07.59,1.86,1.29,2.37.7.52,2.04.78,4.02.78h1.29v1.49h-20.03v-1.49h1.29c1.88,0,3.17-.23,3.89-.71.72-.47,1.18-1.21,1.37-2.21.2-1,.29-3.33.29-6.99v-21.48c0-3.49-.1-5.74-.29-6.75-.2-1.01-.63-1.71-1.29-2.1-.67-.39-2.11-.58-4.33-.58h-.94.01Z"></path>
  <path fill="#F3ECE7" class="st0" d="M132.85,209.31h-11.79c-2.09-1.46-5.29-5.3-9.59-11.5-1.38-1.98-2.81-3.88-4.29-5.7-1.49-1.82-2.51-2.93-3.07-3.33-.56-.4-1.43-.6-2.62-.6h-1.74v9.72c0,3.45.08,5.7.24,6.77.16,1.07.59,1.86,1.29,2.37.7.52,2.04.78,4.02.78h2.1v1.49h-20.96v-1.49h1.42c1.87,0,3.17-.24,3.89-.71.72-.48,1.18-1.21,1.37-2.21.2-1,.29-3.33.29-6.99v-21.48c0-3.49-.09-5.74-.29-6.75-.2-1.01-.63-1.71-1.29-2.1-.67-.38-2.11-.58-4.33-.58h-.74v-1.49l6.26-.32c4.18-.2,7.49-.29,9.95-.29,4.18,0,7.58.39,10.19,1.16,2.62.78,4.73,2.05,6.35,3.81,1.61,1.76,2.42,3.88,2.42,6.33,0,2.86-1.06,5.31-3.17,7.33-2.11,2.03-5.21,3.28-9.3,3.78,1.83.88,4.78,4.07,8.85,9.56,3.32,4.46,5.92,7.38,7.82,8.75,1.89,1.38,4.13,2.11,6.72,2.19v1.49h0ZM99.74,186.7c1.61-.04,3.28-.11,5.01-.2,1.72-.08,3.22-.32,4.49-.71,1.27-.38,2.3-.96,3.08-1.7.79-.74,1.41-1.72,1.86-2.93.45-1.21.68-2.69.68-4.46,0-3.08-.77-5.54-2.31-7.4-1.54-1.85-4.89-2.77-10.06-2.77-.8,0-1.71.04-2.75.13v20.03h0Z"></path>
  <path fill="#F3ECE7" class="st0" d="M161.54,193.16h-16.63l-1.13,2.77c-1.68,4.02-2.52,6.65-2.52,7.88,0,1.31.45,2.31,1.34,2.99.89.68,2.04,1.02,3.44,1.02v1.49h-13.02v-1.49c1.94-.3,3.38-.98,4.33-2.05.95-1.07,2.09-3.31,3.42-6.73.11-.32.63-1.57,1.55-3.75l12.72-30.4h1.26l14.64,34.79,2,4.58c.45,1.03,1.06,1.85,1.83,2.44.76.59,1.91.97,3.44,1.12v1.49h-17.21v-1.49c2.11,0,3.54-.16,4.28-.47.74-.31,1.12-.93,1.12-1.86,0-.48-.5-1.88-1.49-4.23l-3.36-8.11h-.02ZM160.98,191.7l-7.75-18.67-7.72,18.67h15.47Z"></path>
  <path fill="#F3ECE7" class="st0" d="M225,201.75l15.96-36.24h13.44v1.49h-1.61c-2.15,0-3.56.18-4.23.54-.67.36-1.12,1.02-1.34,1.99-.22.97-.34,3.27-.34,6.91v21.48c0,3.45.08,5.7.26,6.77.17,1.07.61,1.86,1.31,2.37.7.52,2.04.78,4.02.78h1.94v1.49h-20.93v-1.49h1.55c1.85,0,3.14-.24,3.86-.71.72-.48,1.18-1.21,1.39-2.21.21-1,.31-3.33.31-6.99v-27.87l-17.34,39.28h-1.52l-17.48-39.28v25.65c0,3.51.11,5.9.32,7.17.21,1.27.88,2.38,2,3.35,1.12.96,2.69,1.5,4.72,1.63v1.49h-15.67v-1.49c1.88-.11,3.4-.62,4.57-1.53,1.17-.92,1.89-2.04,2.15-3.37.26-1.33.38-3.81.38-7.43v-19.06c0-3.49-.1-5.74-.31-6.75-.21-1.01-.64-1.71-1.29-2.1-.66-.38-2.09-.58-4.31-.58h-1.2v-1.49h13.34l16.05,36.24h0Z"></path>
  <path fill="#F3ECE7" class="st0" d="M284.21,193.16h-16.63l-1.13,2.77c-1.68,4.02-2.52,6.65-2.52,7.88,0,1.31.45,2.31,1.34,2.99.89.68,2.04,1.02,3.44,1.02v1.49h-13.01v-1.49c1.94-.3,3.38-.98,4.33-2.05.95-1.07,2.09-3.31,3.42-6.73.11-.32.63-1.57,1.55-3.75l12.73-30.4h1.26l14.63,34.79,2.01,4.58c.45,1.03,1.06,1.85,1.83,2.44.77.59,1.91.97,3.44,1.12v1.49h-17.21v-1.49c2.11,0,3.54-.16,4.28-.47.74-.31,1.12-.93,1.12-1.86,0-.48-.5-1.88-1.49-4.23l-3.36-8.11h-.02ZM283.66,191.7l-7.75-18.67-7.72,18.67h15.47Z"></path>
  <path fill="#F3ECE7" class="st0" d="M348.55,209.31h-11.79c-2.09-1.46-5.29-5.3-9.59-11.5-1.38-1.98-2.81-3.88-4.29-5.7-1.49-1.82-2.51-2.93-3.07-3.33-.56-.4-1.43-.6-2.62-.6h-1.74v9.72c0,3.45.08,5.7.24,6.77.16,1.07.59,1.86,1.29,2.37.7.52,2.04.78,4.02.78h2.1v1.49h-20.96v-1.49h1.42c1.88,0,3.17-.24,3.89-.71.72-.48,1.18-1.21,1.37-2.21.2-1,.29-3.33.29-6.99v-21.48c0-3.49-.1-5.74-.29-6.75-.2-1.01-.62-1.71-1.29-2.1-.67-.38-2.11-.58-4.33-.58h-.74v-1.49l6.26-.32c4.18-.2,7.49-.29,9.95-.29,4.18,0,7.58.39,10.19,1.16,2.62.78,4.73,2.05,6.35,3.81,1.61,1.76,2.42,3.88,2.42,6.33,0,2.86-1.05,5.31-3.17,7.33-2.11,2.03-5.21,3.28-9.3,3.78,1.83.88,4.78,4.07,8.85,9.56,3.32,4.46,5.92,7.38,7.82,8.75,1.89,1.38,4.13,2.11,6.72,2.19v1.49h0ZM315.45,186.7c1.61-.04,3.28-.11,5.01-.2,1.72-.08,3.22-.32,4.49-.71,1.27-.38,2.3-.96,3.09-1.7.79-.74,1.41-1.72,1.86-2.93.45-1.21.68-2.69.68-4.46,0-3.08-.77-5.54-2.31-7.4-1.54-1.85-4.89-2.77-10.06-2.77-.8,0-1.71.04-2.75.13v20.03Z"></path>
  <path fill="#F3ECE7" class="st0" d="M208.62,0h22.69l-.02,1.85c-4.71.87-9.97,2.86-10.73,8.22l-.03,68.14c.49,6.89,4.63,8.24,10.78,9v1.86l-34.4-.51-.19-1.57c3.88.06,8.15-1.62,10.05-5.18.3-.55,1.13-2.72,1.13-3.22V13.88l-27.02,53.86-2.38,4.03c2.61,5.14,5.24,10.35,8.52,15.09,4.07,5.87,10.2,12.86,18.19,10.91l-.03,1.84c-1.03.37-2.13.49-3.21.62-6.71.82-13.72.6-19.53-3.21-5-3.28-7.94-8.44-11.1-13.34-3.94,6.89-9.1,14.46-17.46,16.1-3.01.59-5.92.57-8.94.05v-1.85c1.43-.1,3.03.13,4.44,0,7.43-.71,12.05-6.68,15.6-12.57.68-1.12,3.62-6.26,3.56-7.2-4.51-10.32-10.08-20.13-15.22-30.15-5.77-11.25-11.5-22.52-17.29-33.76l-.21.72c.81,18.93-1.08,38.77-.01,57.59.17,2.98,1.04,7.22,2.74,9.69,2.33,3.37,7.1,4.63,11.02,4.73l.31,1.28-31.88.97.25-2.03c3.88-.97,8.27-1.7,10.48-5.37,2.27-3.75,2.79-10.28,2.95-14.66.71-18.79-.51-38.07-.06-56.92-.7-5.2-8.87-7.97-13.41-8.24V.21h24.34l33.61,64.38L208.62,0Z"></path>
  <path fill="#F3ECE7" class="st0" d="M116.54,245.4c0,1.02-.18,2.02-.55,3.01-.36.98-.87,1.86-1.51,2.64-.64.78-1.41,1.4-2.29,1.88-.89.47-1.86.71-2.94.71-1.53,0-2.75-.45-3.66-1.35-.91-.9-1.37-2.12-1.37-3.65,0-1.22.27-2.39.8-3.53.54-1.14,1.26-2.21,2.19-3.21.92-.99,2-1.9,3.24-2.71,1.24-.82,2.56-1.51,3.97-2.09,1.41-.58,2.88-1.03,4.39-1.35,1.52-.32,3.01-.47,4.47-.47,1.04,0,2.12.08,3.23.26,1.11.17,2.06.46,2.86.88.24-.1.53-.21.84-.33.32-.12.65-.23,1.01-.35.35-.11.7-.21,1.04-.29.34-.08.66-.14.95-.16l.04.22c-.58.07-1.16.22-1.73.43-.57.22-1.1.46-1.58.73,1.85,1.04,2.77,2.55,2.77,4.52,0,1.29-.25,2.39-.75,3.3-.5.91-1.16,1.65-1.97,2.22-.81.57-1.74.98-2.79,1.24-1.04.26-2.12.39-3.21.39v.07c.75.32,1.32.74,1.7,1.26.37.53.56,1.2.56,2.02,0,.54-.12,1.19-.35,1.97-.23.78-.49,1.58-.78,2.41-.29.8-.56,1.57-.8,2.32-.25.74-.36,1.36-.36,1.84,0,.78.35,1.17,1.06,1.17s1.58-.25,2.54-.75c.96-.5,1.98-1.27,3.04-2.32,1.87-1.82,3.64-4.05,5.29-6.67l.33.14c-.56.88-1.22,1.85-1.99,2.94-.76,1.08-1.7,2.18-2.79,3.3-2.41,2.53-4.63,3.79-6.67,3.79-.85,0-1.53-.21-2.02-.62s-.75-1.03-.75-1.86c0-.54.14-1.18.42-1.93.28-.75.59-1.53.93-2.33.34-.8.64-1.6.91-2.41.27-.8.4-1.51.4-2.12,0-.92-.25-1.53-.75-1.82-.5-.29-1.15-.5-1.95-.62l.14-.36c.27.05.53.08.76.11.24.02.5.04.77.04,1.07,0,2.04-.2,2.91-.6.88-.4,1.63-.95,2.25-1.64.62-.69,1.1-1.5,1.44-2.42.34-.92.51-1.91.51-2.95,0-.61-.12-1.19-.35-1.75-.23-.56-.58-1.01-1.04-1.35-1.24.73-2.42,1.84-3.56,3.33-1.13,1.5-2.26,3.16-3.39,5-1.13,1.84-2.28,3.71-3.46,5.63-1.18,1.92-2.42,3.67-3.74,5.27-1.31,1.59-2.71,2.89-4.19,3.9-1.49,1.01-3.1,1.51-4.85,1.51-.39,0-.79-.05-1.2-.15-.41-.1-.78-.25-1.11-.46-.33-.21-.6-.48-.82-.8-.22-.33-.33-.71-.33-1.15s.13-.79.4-1.05c.27-.27.63-.4,1.1-.4.34,0,.61.11.82.33.21.22.31.49.31.8,0,.29-.08.57-.26.84-.17.27-.43.39-.76.36.07.32.33.6.76.85.43.26.94.39,1.5.39,1.26,0,2.45-.49,3.56-1.47,1.11-.98,2.2-2.26,3.28-3.81,1.08-1.56,2.16-3.28,3.24-5.18,1.08-1.9,2.23-3.76,3.46-5.58,1.23-1.82,2.55-3.5,3.97-5.03,1.42-1.53,2.99-2.71,4.72-3.53-.8-.41-1.7-.69-2.7-.84-1-.15-1.97-.22-2.92-.22-1.22,0-2.5.13-3.85.4s-2.67.66-3.97,1.17c-1.3.51-2.55,1.14-3.74,1.9-1.19.75-2.24,1.62-3.14,2.61-.9.98-1.62,2.07-2.15,3.24-.54,1.18-.8,2.46-.8,3.85s.33,2.4.98,3.17c.66.78,1.58,1.17,2.77,1.17,1.04,0,1.99-.24,2.83-.73.84-.49,1.56-1.11,2.15-1.86.6-.75,1.05-1.59,1.37-2.51.32-.92.47-1.82.47-2.7h.44v-.03Z"></path>
  <path fill="#F3ECE7" class="st0" d="M148.44,251.78c-.36.61-.82,1.28-1.37,2-.55.73-1.17,1.45-1.86,2.17-.69.71-1.43,1.41-2.22,2.08-.79.67-1.61,1.26-2.46,1.79-.85.53-1.71.94-2.57,1.24-.87.3-1.71.46-2.53.46-1.02,0-1.81-.26-2.37-.78-.56-.52-.84-1.27-.84-2.24,0-1.07.32-2.19.97-3.37.64-1.18,1.46-2.27,2.46-3.26.99-1,2.09-1.82,3.28-2.48,1.19-.65,2.33-.98,3.43-.98.61,0,1.08.13,1.42.38.34.26.51.63.51,1.11,0,.58-.32,1.15-.95,1.7-.63.55-1.4,1.04-2.32,1.5-.91.45-1.89.85-2.94,1.21-1.04.35-1.97.61-2.77.78-.27.49-.49,1.03-.66,1.64-.17.61-.26,1.22-.26,1.82,0,.29.03.58.09.85.06.28.16.54.29.77.13.23.31.42.55.56.23.14.51.22.85.22.8,0,1.74-.26,2.82-.78,1.08-.52,2.18-1.22,3.3-2.09,1.12-.88,2.19-1.87,3.21-2.99,1.02-1.12,1.9-2.27,2.62-3.46l.29.18v-.02ZM142.54,249.85c0-.34-.09-.6-.27-.76-.18-.17-.41-.26-.67-.26-.51,0-1.06.2-1.66.6-.6.4-1.18.9-1.77,1.5-.58.6-1.11,1.23-1.59,1.92-.47.68-.83,1.29-1.08,1.82.54-.1,1.2-.29,2.01-.56.8-.28,1.57-.63,2.32-1.04.74-.41,1.38-.89,1.91-1.44.54-.55.8-1.13.8-1.77Z"></path>
  <path fill="#F3ECE7" class="st0" d="M160.47,251.82c-.73,1.17-1.57,2.33-2.53,3.48-.96,1.16-2.01,2.19-3.15,3.12-1.15.92-2.39,1.67-3.74,2.24-1.35.57-2.79.86-4.32.86-.58,0-1.13-.07-1.64-.22-.51-.14-.95-.36-1.33-.66-.37-.3-.68-.66-.91-1.11-.23-.45-.35-.98-.35-1.59s.21-1.2.62-1.71c.41-.51.97-.76,1.68-.76.36,0,.66.09.89.27.23.18.35.46.35.82,0,.34-.08.63-.26.88-.17.25-.43.36-.76.36-.27,0-.48-.07-.64-.22-.16-.14-.26-.33-.31-.55-.27.14-.45.36-.55.64s-.15.56-.15.85c0,.85.32,1.49.97,1.92.64.42,1.37.64,2.17.64.51,0,.95-.11,1.33-.31.37-.21.69-.47.95-.8.26-.33.44-.71.56-1.15.12-.44.18-.88.18-1.31,0-.46-.08-.94-.24-1.44-.16-.5-.34-.99-.53-1.47-.2-.49-.38-.97-.55-1.44-.17-.47-.26-.92-.26-1.33,0-.54.11-1.02.33-1.44.22-.42.51-.78.89-1.08.37-.29.81-.51,1.29-.68.49-.16.99-.24,1.53-.24.97,0,1.76.21,2.37.64.61.42.91.99.91,1.7,0,.63-.23,1.1-.71,1.38-.47.29-1.01.43-1.59.43.15-.27.27-.59.39-.97.11-.37.16-.72.16-1.04,0-.49-.15-.89-.46-1.22-.3-.33-.74-.49-1.29-.49-.7,0-1.23.21-1.57.64-.34.43-.51.94-.51,1.55,0,.54.09,1.04.27,1.53.18.49.4.97.64,1.46.22.49.42.98.6,1.5.18.51.27,1.08.27,1.71,0,.46-.11.9-.31,1.33-.21.42-.48.82-.82,1.17-.34.35-.73.65-1.15.89-.42.25-.85.4-1.3.48l.07.07c1.31-.15,2.56-.53,3.76-1.15,1.19-.62,2.3-1.37,3.33-2.26,1.03-.89,1.99-1.86,2.86-2.91.88-1.06,1.64-2.09,2.29-3.12l.22.11h0Z"></path>
  <path fill="#F3ECE7" class="st0" d="M164.33,248.68c-1.33,1.92-2.47,3.54-3.39,4.85-.92,1.31-1.67,2.41-2.25,3.28-.57.88-.98,1.57-1.24,2.08s-.39.92-.39,1.24c0,.63.26.95.76.95s1.05-.18,1.7-.53c.64-.35,1.32-.81,2.02-1.37.7-.56,1.41-1.19,2.12-1.9.7-.7,1.37-1.4,1.99-2.09.62-.69,1.17-1.36,1.64-2,.48-.64.82-1.17,1.04-1.59l.29.18c-.29.49-.69,1.07-1.18,1.75-.5.68-1.06,1.38-1.7,2.09-.63.71-1.3,1.43-2,2.13-.7.7-1.42,1.33-2.15,1.9-.73.56-1.44,1.01-2.13,1.35-.69.34-1.33.51-1.91.51-.66,0-1.15-.18-1.46-.55-.31-.36-.48-.77-.48-1.2,0-.51.12-1.05.35-1.62.23-.57.6-1.27,1.11-2.09.51-.83,1.17-1.83,1.99-3.01.82-1.18,1.79-2.63,2.94-4.36h2.33ZM166.45,241.9c.34,0,.62.12.84.35.22.23.33.51.33.85s-.11.63-.33.85c-.22.23-.5.35-.84.35s-.62-.12-.84-.35c-.22-.23-.33-.51-.33-.85s.11-.62.33-.85c.22-.23.5-.35.84-.35Z"></path>
  <path fill="#F3ECE7" class="st0" d="M188.65,235.99c-.95,1.51-1.98,3.1-3.1,4.77-1.12,1.67-2.24,3.34-3.36,5-1.12,1.65-2.19,3.25-3.23,4.8-1.03,1.54-1.95,2.96-2.75,4.25-.8,1.29-1.44,2.4-1.91,3.33-.48.94-.71,1.62-.71,2.06,0,.27.07.48.2.64.13.16.33.23.6.23.61,0,1.3-.24,2.08-.73.78-.49,1.71-1.25,2.81-2.3.95-.92,1.87-1.95,2.77-3.08.9-1.13,1.68-2.24,2.33-3.33l.29.14c-.22.39-.5.84-.85,1.37-.35.52-.74,1.07-1.17,1.62-.43.56-.88,1.12-1.37,1.7-.49.57-.98,1.11-1.5,1.62-.97,1-1.93,1.81-2.88,2.46-.95.64-1.82.97-2.62.97s-1.36-.16-1.73-.49c-.38-.33-.56-.75-.56-1.26,0-.46.09-.91.29-1.35.19-.43.39-.83.58-1.17l-.07-.04c-.39.44-.82.9-1.3,1.4-.47.5-.98.96-1.51,1.4-.54.44-1.1.8-1.7,1.08-.6.28-1.21.42-1.84.42-.88,0-1.55-.27-2.02-.8-.47-.54-.71-1.17-.71-1.9,0-1.02.35-2.14,1.06-3.36.7-1.22,1.59-2.35,2.64-3.39,1.06-1.04,2.19-1.92,3.41-2.62,1.22-.7,2.35-1.05,3.39-1.05.78,0,1.4.24,1.86.73.46.49.68,1.11.66,1.86h.11l9.41-14.99h2.41ZM175.71,251.01c0-.58-.1-1.09-.29-1.53-.2-.44-.64-.66-1.35-.66-.49,0-1.03.17-1.62.51-.6.34-1.19.79-1.8,1.35-.61.56-1.19,1.19-1.77,1.92-.57.72-1.08,1.45-1.51,2.19-.43.74-.79,1.46-1.06,2.17-.27.7-.4,1.33-.4,1.9,0,.51.1.94.29,1.28.2.34.55.51,1.06.51.44,0,.94-.17,1.51-.51.57-.34,1.17-.78,1.8-1.33.63-.55,1.25-1.17,1.86-1.88.61-.7,1.16-1.41,1.64-2.12.49-.7.88-1.39,1.18-2.06.3-.67.46-1.24.46-1.73h0Z"></path>
  <path fill="#F3ECE7" class="st0" d="M197,251.78c-.36.61-.82,1.28-1.37,2-.55.73-1.17,1.45-1.86,2.17-.69.71-1.43,1.41-2.22,2.08-.79.67-1.61,1.26-2.46,1.79-.85.53-1.71.94-2.57,1.24-.87.3-1.71.46-2.54.46-1.02,0-1.81-.26-2.37-.78-.56-.52-.84-1.27-.84-2.24,0-1.07.32-2.19.97-3.37.64-1.18,1.46-2.27,2.46-3.26.99-1,2.09-1.82,3.28-2.48,1.19-.65,2.33-.98,3.43-.98.61,0,1.08.13,1.42.38.34.26.51.63.51,1.11,0,.58-.32,1.15-.95,1.7-.63.55-1.4,1.04-2.32,1.5-.91.45-1.89.85-2.94,1.21-1.04.35-1.97.61-2.77.78-.27.49-.49,1.03-.66,1.64-.17.61-.26,1.22-.26,1.82,0,.29.03.58.09.85.06.28.16.54.29.77s.31.42.55.56c.23.14.51.22.86.22.8,0,1.74-.26,2.82-.78,1.08-.52,2.18-1.22,3.3-2.09,1.12-.88,2.19-1.87,3.21-2.99,1.02-1.12,1.9-2.27,2.62-3.46l.29.18v-.02ZM191.1,249.85c0-.34-.09-.6-.27-.76-.18-.17-.41-.26-.68-.26-.51,0-1.06.2-1.66.6-.6.4-1.18.9-1.77,1.5-.58.6-1.11,1.23-1.59,1.92-.47.68-.83,1.29-1.08,1.82.54-.1,1.2-.29,2-.56.8-.28,1.57-.63,2.32-1.04.74-.41,1.38-.89,1.92-1.44.54-.55.8-1.13.8-1.77Z"></path>
  <path fill="#F3ECE7" class="st0" d="M200.31,248.68l-4.81,6.67.07.07c.51-.61,1.1-1.32,1.79-2.13.68-.81,1.41-1.59,2.19-2.32.78-.73,1.59-1.34,2.42-1.84.84-.5,1.67-.75,2.5-.75.73,0,1.29.2,1.7.6.4.4.6.92.6,1.55,0,.39-.14.85-.42,1.38-.28.54-.63,1.11-1.04,1.71-.41.61-.87,1.23-1.35,1.86-.49.63-.94,1.23-1.35,1.8-.41.57-.76,1.1-1.04,1.57-.28.47-.42.87-.42,1.18,0,.68.34,1.02,1.02,1.02.78,0,1.6-.26,2.48-.78.88-.52,1.92-1.4,3.14-2.64.49-.49.98-1.02,1.47-1.6.5-.58.98-1.16,1.44-1.73.46-.57.88-1.11,1.26-1.62.37-.51.68-.93.89-1.28l.26.15c-.48.73-1.11,1.6-1.88,2.61-.76,1.01-1.6,2-2.5,2.97-.54.58-1.08,1.15-1.64,1.68-.56.54-1.12,1-1.68,1.4-.56.4-1.11.72-1.66.95-.55.23-1.09.35-1.62.35-.7,0-1.29-.2-1.75-.58-.46-.39-.69-.92-.69-1.6,0-.73.29-1.52.88-2.39.58-.86,1.23-1.73,1.93-2.61.7-.88,1.35-1.71,1.93-2.51.58-.8.88-1.51.88-2.12,0-.29-.1-.51-.29-.66-.2-.15-.45-.22-.76-.22-.61,0-1.29.22-2.04.68-.75.45-1.52,1.04-2.32,1.79-.79.74-1.58,1.57-2.37,2.48-.79.91-1.52,1.82-2.21,2.74-.68.91-1.29,1.79-1.82,2.62-.54.84-.94,1.54-1.2,2.09h-2.26c.63-1.07,1.31-2.15,2.02-3.26.71-1.11,1.43-2.2,2.13-3.28.7-1.08,1.38-2.13,2.02-3.14.64-1.01,1.22-1.93,1.73-2.75l2.37-.11h0Z"></path>
  <path fill="#F3ECE7" class="st0" d="M225.07,252.07c-.56.9-1.29,1.87-2.21,2.9-.91,1.03-1.9,2-2.97,2.9-1.31,1.09-2.62,1.98-3.94,2.64-1.31.67-2.6,1.01-3.86,1.01-.9,0-1.65-.24-2.26-.71-.61-.47-.91-1.17-.91-2.09,0-1.17.34-2.36,1.01-3.57.67-1.22,1.51-2.33,2.52-3.33,1.01-1,2.12-1.83,3.32-2.46,1.2-.63,2.34-.95,3.41-.95.7,0,1.32.13,1.84.38.53.26.78.7.78,1.33,0,.29-.08.54-.24.73-.16.2-.35.35-.58.48-.23.12-.49.21-.76.27-.28.06-.53.11-.75.13.1-.24.18-.49.26-.75.07-.26.11-.51.11-.78,0-.9-.42-1.35-1.28-1.35-.63,0-1.38.31-2.24.93-.87.62-1.68,1.4-2.45,2.35-.76.95-1.42,1.99-1.95,3.14-.54,1.14-.8,2.25-.8,3.32,0,.66.15,1.22.46,1.67.3.46.77.69,1.4.69.85,0,1.83-.28,2.94-.84,1.11-.56,2.18-1.25,3.23-2.08,1.09-.85,2.14-1.83,3.15-2.94,1.01-1.1,1.85-2.18,2.54-3.23l.26.22h-.01Z"></path>
  <path fill="#F3ECE7" class="st0" d="M237.47,251.78c-.36.61-.82,1.28-1.37,2-.55.73-1.17,1.45-1.86,2.17-.69.71-1.43,1.41-2.22,2.08-.79.67-1.61,1.26-2.46,1.79-.85.53-1.71.94-2.57,1.24-.87.3-1.71.46-2.53.46-1.02,0-1.81-.26-2.37-.78-.56-.52-.84-1.27-.84-2.24,0-1.07.32-2.19.97-3.37.64-1.18,1.46-2.27,2.46-3.26.99-1,2.09-1.82,3.28-2.48,1.19-.65,2.33-.98,3.43-.98.61,0,1.08.13,1.42.38.34.26.51.63.51,1.11,0,.58-.32,1.15-.95,1.7-.63.55-1.4,1.04-2.32,1.5-.91.45-1.89.85-2.94,1.21-1.04.35-1.97.61-2.77.78-.27.49-.49,1.03-.66,1.64-.17.61-.26,1.22-.26,1.82,0,.29.03.58.09.85.06.28.16.54.29.77.13.23.31.42.55.56.23.14.51.22.85.22.8,0,1.74-.26,2.83-.78,1.08-.52,2.18-1.22,3.3-2.09,1.12-.88,2.19-1.87,3.21-2.99,1.02-1.12,1.9-2.27,2.62-3.46l.29.18v-.02ZM231.56,249.85c0-.34-.09-.6-.27-.76-.18-.17-.41-.26-.68-.26-.51,0-1.06.2-1.66.6-.6.4-1.18.9-1.77,1.5-.58.6-1.11,1.23-1.59,1.92-.47.68-.83,1.29-1.08,1.82.54-.1,1.2-.29,2-.56.8-.28,1.57-.63,2.32-1.04.74-.41,1.38-.89,1.92-1.44.54-.55.8-1.13.8-1.77Z"></path>
  <path fill="#F3ECE7" class="st0" d="M249.49,251.82c-.73,1.17-1.57,2.33-2.54,3.48-.96,1.16-2.01,2.19-3.15,3.12-1.14.92-2.39,1.67-3.74,2.24-1.35.57-2.79.86-4.32.86-.58,0-1.13-.07-1.64-.22-.51-.14-.96-.36-1.33-.66-.37-.3-.68-.66-.91-1.11-.23-.45-.35-.98-.35-1.59s.21-1.2.62-1.71c.41-.51.97-.76,1.67-.76.36,0,.67.09.89.27.23.18.35.46.35.82,0,.34-.08.63-.26.88-.17.25-.42.36-.76.36-.27,0-.48-.07-.64-.22-.16-.14-.26-.33-.31-.55-.27.14-.45.36-.55.64s-.15.56-.15.85c0,.85.32,1.49.97,1.92.64.42,1.37.64,2.17.64.51,0,.96-.11,1.33-.31.37-.21.69-.47.95-.8.26-.33.44-.71.56-1.15.12-.44.18-.88.18-1.31,0-.46-.08-.94-.23-1.44-.16-.5-.34-.99-.53-1.47-.19-.49-.38-.97-.55-1.44-.17-.47-.26-.92-.26-1.33,0-.54.11-1.02.33-1.44.22-.42.51-.78.89-1.08.37-.29.81-.51,1.3-.68.49-.16.99-.24,1.53-.24.97,0,1.76.21,2.37.64.61.42.91.99.91,1.7,0,.63-.24,1.1-.71,1.38-.48.29-1.01.43-1.59.43.15-.27.27-.59.38-.97.11-.37.16-.72.16-1.04,0-.49-.15-.89-.46-1.22-.3-.33-.74-.49-1.29-.49-.7,0-1.23.21-1.57.64-.34.43-.51.94-.51,1.55,0,.54.09,1.04.27,1.53.18.49.4.97.64,1.46.22.49.42.98.6,1.5.18.51.27,1.08.27,1.71,0,.46-.11.9-.31,1.33-.21.42-.48.82-.82,1.17-.34.35-.73.65-1.15.89-.42.25-.85.4-1.29.48l.07.07c1.31-.15,2.56-.53,3.76-1.15,1.19-.62,2.3-1.37,3.33-2.26s1.99-1.86,2.87-2.91c.88-1.06,1.64-2.09,2.29-3.12l.22.11h0Z"></path>
  <path fill="#F3ECE7" class="st0" d="M79.14,319.06c-.46-.13-.87-.32-1.23-.56-.36-.23-.69-.52-.96-.86-.27-.34-.5-.71-.66-1.12l1.45-.77c.32.64.73,1.11,1.22,1.42.49.31,1.08.46,1.75.46.33,0,.63-.03.9-.08.27-.06.5-.14.7-.25.19-.11.34-.26.45-.44.11-.18.16-.39.16-.62s-.04-.44-.13-.61c-.09-.18-.23-.34-.42-.49-.2-.15-.45-.29-.76-.41-.31-.13-.69-.26-1.13-.39-.35-.1-.68-.2-1-.31-.32-.11-.62-.22-.9-.35-.28-.12-.54-.26-.76-.42-.23-.16-.42-.33-.59-.54-.16-.21-.28-.44-.38-.7-.09-.27-.13-.57-.13-.91,0-.46.09-.88.27-1.26.18-.37.43-.7.76-.96.32-.27.71-.47,1.16-.61.45-.15.95-.22,1.5-.22s1.01.06,1.43.18c.42.12.8.29,1.13.5.33.21.62.45.86.73.24.28.44.58.61.9l-1.32.92c-.33-.54-.72-.94-1.17-1.2-.45-.26-.97-.38-1.56-.38s-1.07.11-1.4.32c-.33.21-.49.51-.49.91,0,.25.05.46.15.64.1.18.26.34.46.48.21.14.47.26.79.38.32.12.7.24,1.14.37.51.15.98.31,1.43.49s.84.38,1.17.62c.33.25.6.55.79.9.19.35.29.78.29,1.28,0,.44-.09.85-.27,1.24-.18.39-.45.71-.79,1-.35.29-.78.51-1.28.67-.51.16-1.08.25-1.72.25-.54,0-1.03-.07-1.49-.2v-.02Z"></path>
  <path fill="#F3ECE7" class="st0" d="M91.47,318.9c-.6-.24-1.11-.6-1.55-1.08-.44-.48-.79-1.06-1.04-1.76-.25-.7-.38-1.5-.38-2.41s.13-1.71.38-2.41c.25-.7.6-1.28,1.04-1.76.44-.47.95-.83,1.55-1.07.6-.24,1.23-.36,1.92-.36s1.32.12,1.92.36c.59.24,1.11.6,1.54,1.07.44.48.78,1.06,1.03,1.76.25.7.37,1.5.37,2.41s-.12,1.71-.37,2.41c-.25.7-.59,1.28-1.03,1.76-.44.47-.95.83-1.54,1.08-.59.24-1.23.36-1.92.36s-1.32-.12-1.92-.36ZM94.62,317.34c.37-.17.69-.43.96-.76.26-.33.46-.74.61-1.23.15-.49.22-1.05.22-1.69s-.07-1.19-.22-1.68c-.15-.49-.35-.9-.61-1.23-.27-.34-.59-.59-.96-.75-.37-.17-.79-.26-1.23-.26s-.88.08-1.26.26c-.37.17-.7.42-.96.75-.26.33-.47.74-.61,1.23-.15.49-.22,1.05-.22,1.68s.07,1.2.22,1.69c.15.49.35.9.61,1.23.27.33.59.59.96.76s.79.26,1.26.26.87-.09,1.23-.26Z"></path>
  <path fill="#F3ECE7" class="st0" d="M104.72,318.93c-.53-.2-.96-.48-1.3-.84-.33-.36-.59-.79-.74-1.3-.16-.51-.24-1.07-.24-1.67v-6.86h1.83v6.7c0,.41.04.78.14,1.11.1.32.23.6.43.82.19.23.43.4.73.52.3.12.65.18,1.07.18s.77-.06,1.07-.17.54-.29.74-.51c.19-.22.33-.49.42-.82.1-.32.14-.69.14-1.11v-6.72h1.79v6.85c0,.61-.09,1.17-.26,1.68-.17.51-.44.94-.78,1.3-.35.36-.79.65-1.31.85-.52.2-1.13.3-1.83.3-.74,0-1.37-.1-1.9-.3h0Z"></path>
  <path fill="#F3ECE7" class="st0" d="M118.1,309.95h-3.33v-1.7h8.48v1.7h-3.33v9.1h-1.83v-9.1h0Z"></path>
  <path fill="#F3ECE7" class="st0" d="M127.35,308.25h1.83v4.31h4.9v-4.31h1.83v10.8h-1.83v-4.8h-4.9v4.8h-1.83v-10.8Z"></path>
  <path fill="#F3ECE7" class="st0" d="M147,308.25h3.77c.59,0,1.13.06,1.64.17.51.11.94.3,1.32.55.38.26.67.6.88,1.03.21.42.32.94.32,1.57s-.12,1.2-.35,1.63c-.23.44-.54.78-.93,1.04-.39.26-.84.45-1.34.56-.51.11-1.04.16-1.6.16h-1.91v4.09h-1.81v-10.8h0ZM150.8,313.36c.4,0,.75-.03,1.04-.1.3-.07.54-.17.73-.3.19-.14.33-.32.42-.54.1-.22.14-.49.14-.79,0-.6-.19-1.03-.56-1.3-.38-.27-.97-.41-1.77-.41h-1.99v3.44h2Z"></path>
  <path fill="#F3ECE7" class="st0" d="M160.96,308.21h1.79l3.82,10.84h-1.87l-.88-2.56h-4.09l-.89,2.56h-1.71l3.82-10.84h0ZM163.29,314.88l-1.47-4.37h-.03l-1.5,4.37h3Z"></path>
  <path fill="#F3ECE7" class="st0" d="M170.65,308.25h1.83v9.14h4.97v1.66h-6.79v-10.8Z"></path>
  <path fill="#F3ECE7" class="st0" d="M181.58,308.25h2.41l2.89,8.57h.03l2.8-8.57h2.45v10.8h-1.76v-8.05h-.03c-.08.37-.18.73-.29,1.09-.11.36-.23.73-.35,1.11l-2.1,5.85h-1.62l-2.09-5.85c-.07-.19-.13-.37-.18-.54-.06-.16-.11-.33-.16-.5-.05-.17-.1-.36-.15-.55-.05-.2-.11-.42-.16-.69h-.03v8.12h-1.65v-10.8h0Z"></path>
  <path fill="#F3ECE7" class="st0" d="M205.77,308.21h1.79l3.82,10.84h-1.87l-.88-2.56h-4.09l-.89,2.56h-1.71l3.82-10.84h0ZM208.1,314.88l-1.47-4.37h-.03l-1.5,4.37h3Z"></path>
  <path fill="#F3ECE7" class="st0" d="M213.74,308.25h1.85l2.79,8.42h.03l2.82-8.42h1.73l-3.75,10.84h-1.71l-3.75-10.84h0Z"></path>
  <path fill="#F3ECE7" class="st0" d="M227.04,308.25h6.97v1.7h-5.15v2.69h3.77v1.62h-3.77v3.14h5.44v1.66h-7.26v-10.8h0Z"></path>
  <path fill="#F3ECE7" class="st0" d="M238.6,308.25h1.85l5.11,7.71h.03v-7.71h1.7v10.8h-1.66l-5.29-7.86h-.03v7.86h-1.7v-10.8h0Z"></path>
  <path fill="#F3ECE7" class="st0" d="M254.35,318.93c-.53-.2-.96-.48-1.3-.84-.34-.36-.59-.79-.74-1.3-.16-.51-.24-1.07-.24-1.67v-6.86h1.83v6.7c0,.41.04.78.14,1.11.1.32.23.6.43.82.19.23.43.4.73.52.3.12.65.18,1.07.18s.77-.06,1.07-.17.54-.29.74-.51c.19-.22.33-.49.42-.82.1-.32.14-.69.14-1.11v-6.72h1.79v6.85c0,.61-.09,1.17-.26,1.68-.17.51-.44.94-.78,1.3-.35.36-.79.65-1.31.85-.52.2-1.13.3-1.83.3-.74,0-1.37-.1-1.9-.3h0Z"></path>
  <path fill="#F3ECE7" class="st0" d="M265.23,308.25h6.97v1.7h-5.15v2.69h3.77v1.62h-3.77v3.14h5.44v1.66h-7.26v-10.8h0Z"></path>
  <path fill="#F3ECE7" class="st0" d="M39.18,43.21h7.7v1.87h-5.68v2.96h4.17v1.79h-4.17v3.47h6.01v1.83h-8.02v-11.92Z"></path>
  <path fill="#F3ECE7" class="st0" d="M54.23,55.14c-.5-.15-.95-.35-1.36-.62-.4-.26-.75-.58-1.06-.95-.3-.37-.55-.78-.74-1.23l1.6-.84c.36.7.8,1.22,1.35,1.56.54.34,1.19.51,1.94.51.36,0,.69-.03.99-.09.3-.06.56-.15.77-.28.21-.13.37-.28.49-.48.12-.2.18-.42.18-.69s-.05-.49-.15-.68c-.09-.2-.25-.37-.47-.54-.21-.16-.49-.31-.84-.45-.35-.14-.76-.28-1.26-.43-.39-.11-.75-.22-1.11-.34-.35-.12-.69-.25-.99-.39-.31-.13-.59-.29-.84-.46-.25-.17-.47-.37-.64-.6-.18-.22-.32-.49-.42-.78-.1-.3-.15-.63-.15-1.01,0-.51.1-.97.3-1.38.2-.41.47-.77.84-1.06.36-.3.78-.52,1.28-.68.5-.16,1.05-.24,1.66-.24s1.12.07,1.59.21c.47.14.89.32,1.26.55.37.23.68.5.95.81.26.31.49.64.67.99l-1.46,1.02c-.36-.6-.79-1.04-1.3-1.32-.5-.28-1.07-.42-1.72-.42s-1.18.12-1.54.35c-.36.23-.54.57-.54,1,0,.28.06.51.17.71.11.2.28.37.51.52.22.15.51.29.87.42.35.13.78.26,1.26.41.56.17,1.09.35,1.58.54.49.19.92.42,1.29.69.37.28.66.61.87,1,.21.39.32.86.32,1.42,0,.49-.1.94-.3,1.37-.2.42-.49.79-.88,1.1-.39.31-.86.56-1.42.74-.56.18-1.19.27-1.9.27-.59,0-1.14-.07-1.64-.22v-.02Z"></path>
  <path fill="#F3ECE7" class="st0" d="M67.5,45.08h-3.67v-1.87h9.36v1.87h-3.67v10.05h-2.02v-10.05h0Z"></path>
  <path fill="#F3ECE7" class="st0" d="M75.54,53.04h2.23v2.09h-2.23v-2.09Z"></path>
  <path fill="#F3ECE7" class="st0" d="M264.71,53.36h2.2v-8.1c-.15.07-.31.15-.49.21-.18.07-.36.12-.55.17-.2.05-.39.09-.58.12-.2.03-.38.04-.55.04v-1.81c.46-.02.88-.08,1.26-.21.38-.13.7-.31.97-.56h1.89v10.15h1.95v1.77h-6.1v-1.77h.01Z"></path>
  <path fill="#F3ECE7" class="st0" d="M277.3,55.28c-.3-.06-.58-.13-.84-.22-.26-.09-.5-.19-.71-.31-.21-.12-.4-.23-.56-.36l.97-1.49c.27.2.59.37.95.51.36.15.77.22,1.24.22s.86-.09,1.23-.29c.37-.2.69-.47.95-.83.27-.36.48-.79.63-1.3.16-.51.24-1.08.27-1.71-.2.18-.41.35-.65.51-.23.16-.48.29-.73.4-.26.12-.54.21-.83.28-.3.07-.6.1-.93.1-.56,0-1.08-.08-1.55-.25-.47-.16-.87-.4-1.19-.71-.34-.31-.6-.7-.78-1.17-.18-.46-.27-1-.27-1.62s.11-1.14.34-1.64c.23-.5.54-.93.93-1.29.39-.36.84-.63,1.37-.83.53-.2,1.08-.3,1.68-.3.68,0,1.31.12,1.87.37s1.05.62,1.46,1.12c.4.5.71,1.12.94,1.86.22.75.33,1.62.33,2.61,0,1.05-.14,1.97-.41,2.77-.27.8-.65,1.46-1.11,2-.47.54-1.01.94-1.64,1.22-.63.27-1.29.41-1.99.41-.33,0-.65-.03-.95-.08h0ZM279.49,49.02c.27-.07.54-.15.78-.26.24-.11.46-.23.66-.37.2-.14.36-.29.49-.44-.04-.58-.13-1.07-.28-1.47s-.33-.74-.57-1.01c-.23-.26-.51-.45-.82-.56-.31-.12-.66-.18-1.03-.18-.73,0-1.3.2-1.7.59-.4.39-.6.95-.6,1.67,0,.31.04.6.12.86.08.26.21.49.38.68.17.19.4.33.69.45.29.11.64.16,1.06.16.29,0,.56-.03.84-.1h-.01Z"></path>
  <path fill="#F3ECE7" class="st0" d="M287.31,54.87c0-.43.04-.86.14-1.28.1-.42.28-.86.55-1.3.27-.44.64-.89,1.13-1.36.49-.46,1.12-.95,1.91-1.45.46-.3.84-.56,1.16-.79.32-.23.58-.46.79-.68.21-.22.35-.45.45-.68.1-.23.14-.51.14-.82,0-.28-.04-.52-.13-.74-.09-.21-.21-.4-.38-.54-.16-.14-.36-.25-.59-.32-.23-.08-.49-.11-.77-.11-.52,0-1.03.15-1.51.46-.49.31-.92.74-1.3,1.3l-1.5-1.03c.24-.37.51-.7.8-1.02.3-.31.62-.58.99-.8.36-.22.76-.4,1.19-.52s.9-.18,1.42-.18c.58,0,1.11.08,1.57.25.46.16.85.39,1.18.68.32.3.56.65.74,1.07.17.41.26.88.26,1.38,0,.36-.04.7-.12,1.03-.08.32-.22.65-.44.96-.21.32-.5.64-.86.97s-.83.67-1.4,1.03c-.48.3-.89.58-1.26.85-.36.27-.66.53-.92.78-.26.25-.46.48-.6.71-.15.22-.25.45-.3.66h5.95v1.77h-8.3v-.27Z"></path>
  <path fill="#F3ECE7" class="st0" d="M299.77,54.87c0-.43.05-.86.14-1.28.1-.42.28-.86.55-1.3.27-.44.64-.89,1.13-1.36.49-.46,1.12-.95,1.91-1.45.46-.3.84-.56,1.16-.79.32-.23.58-.46.79-.68.21-.22.35-.45.45-.68.1-.23.14-.51.14-.82,0-.28-.04-.52-.13-.74-.09-.21-.21-.4-.38-.54-.16-.14-.36-.25-.59-.32-.23-.08-.49-.11-.76-.11-.52,0-1.03.15-1.51.46-.49.31-.92.74-1.3,1.3l-1.5-1.03c.24-.37.51-.7.8-1.02.3-.31.62-.58.99-.8.36-.22.76-.4,1.19-.52.43-.12.9-.18,1.42-.18.58,0,1.11.08,1.57.25.46.16.85.39,1.18.68.32.3.56.65.74,1.07.17.41.26.88.26,1.38,0,.36-.04.7-.12,1.03-.08.32-.22.65-.43.96-.21.32-.5.64-.86.97-.36.33-.83.67-1.4,1.03-.47.3-.89.58-1.26.85-.36.27-.67.53-.92.78-.26.25-.46.48-.6.71-.14.22-.24.45-.3.66h5.95v1.77h-8.3v-.27Z"></path>
</svg>