<?xml version="1.0" encoding="UTF-8"?>
<svg xmlns="http://www.w3.org/2000/svg" width="195" height="73" viewBox="0 0 195 73">
  <path d="M122.746 0H139.181L139.165 1.3389C135.755 1.96992 131.945 3.40995 131.395 7.29721L131.37 56.6585C131.722 61.6501 134.724 62.629 139.177 63.1791V64.5301L114.26 64.162L114.118 63.0254C116.93 63.0658 120.02 61.8483 121.399 59.2756C121.614 58.8752 122.22 57.3017 122.22 56.9457V10.0559L102.643 49.0741L100.919 51.9946C102.808 55.716 104.714 59.49 107.092 62.9242C110.041 67.1796 114.482 72.244 120.271 70.8282L120.25 72.159C119.506 72.426 118.705 72.515 117.925 72.608C113.067 73.1986 107.982 73.0449 103.775 70.2862C100.151 67.9077 98.0232 64.1701 95.7337 60.6226C92.8819 65.6142 89.1443 71.0992 83.0849 72.2844C80.9046 72.7091 78.7932 72.697 76.6089 72.3208L76.6008 70.9779C77.6444 70.9051 78.8012 71.0749 79.8287 70.9779C85.2126 70.4601 88.5578 66.14 91.1304 61.8685C91.6199 61.0595 93.7516 57.33 93.7071 56.6545C90.4387 49.1752 86.4018 42.0681 82.6804 34.8154C78.4979 26.6647 74.3477 18.4978 70.153 10.3552L70.0033 10.877C70.5899 24.5937 69.2227 38.9616 69.9953 52.6014C70.1166 54.7574 70.7476 57.8356 71.9773 59.6195C73.6641 62.0627 77.1226 62.9728 79.9622 63.0456L80.1887 63.9719L57.0957 64.6717L57.2777 63.1993C60.089 62.4955 63.2684 61.9656 64.8702 59.312C66.5125 56.5938 66.8887 51.8611 67.01 48.6939C67.5278 35.0784 66.6379 21.1109 66.9655 7.45901C66.4559 3.68905 60.5421 1.68273 57.2494 1.49261V0.149666H74.8857L99.2326 46.7927L122.746 0Z" fill="currentColor"></path>
  <path d="M0 31.3043H5.57807V32.6594H1.46025V34.8073H4.47783V36.1017H1.46025V38.6137H5.81269V39.9404H0V31.3043Z" fill="currentColor"></path>
  <path d="M10.8977 39.9444C10.5337 39.8393 10.206 39.6896 9.91075 39.4954C9.61951 39.3053 9.36468 39.0747 9.14625 38.8078C8.92782 38.5368 8.74984 38.2415 8.6123 37.9138L9.76918 37.303C10.0281 37.8127 10.3517 38.1889 10.7481 38.4356C11.1404 38.6824 11.6097 38.8078 12.1517 38.8078C12.4146 38.8078 12.6533 38.7875 12.8677 38.7431C13.0861 38.6986 13.2722 38.6338 13.4259 38.5408C13.5796 38.4478 13.6969 38.3345 13.7818 38.1929C13.8668 38.0514 13.9113 37.8855 13.9113 37.6913C13.9113 37.4972 13.8749 37.3394 13.8061 37.1979C13.7373 37.0563 13.6241 36.9268 13.4663 36.8095C13.3126 36.6922 13.1104 36.583 12.8596 36.4819C12.6088 36.3808 12.3094 36.2796 11.9494 36.1704C11.6703 36.0895 11.4074 36.0086 11.1485 35.9237C10.8937 35.8387 10.651 35.7457 10.4285 35.6446C10.206 35.5475 9.99974 35.4342 9.81772 35.3088C9.63569 35.1834 9.47794 35.0378 9.35254 34.876C9.2231 34.7142 9.12198 34.5241 9.04917 34.3138C8.97636 34.0994 8.93995 33.8567 8.93995 33.5857C8.93995 33.2176 9.01276 32.8818 9.15434 32.5825C9.29591 32.2832 9.49816 32.0243 9.76109 31.8139C10.02 31.5996 10.3274 31.4378 10.6914 31.3205C11.0514 31.2031 11.4519 31.1465 11.8928 31.1465C12.3337 31.1465 12.7018 31.1951 13.0416 31.2962C13.3814 31.3973 13.6848 31.5267 13.9517 31.6966C14.2187 31.8665 14.4452 32.0607 14.6394 32.2832C14.8295 32.5056 14.9953 32.7483 15.1248 32.9991L14.065 33.7353C13.8021 33.3025 13.4906 32.983 13.1265 32.7807C12.7625 32.5785 12.3499 32.4773 11.8807 32.4773C11.4115 32.4773 11.0272 32.5623 10.7643 32.7322C10.5013 32.9021 10.3719 33.1448 10.3719 33.4562C10.3719 33.6585 10.4123 33.8284 10.4932 33.974C10.5741 34.1156 10.6955 34.241 10.8654 34.3542C11.0272 34.4634 11.2375 34.5646 11.4964 34.6576C11.7512 34.7506 12.0587 34.8477 12.4106 34.9529C12.8151 35.0742 13.1994 35.2037 13.5553 35.3412C13.9113 35.4787 14.2227 35.6446 14.4897 35.8428C14.7567 36.045 14.967 36.2837 15.1207 36.5668C15.2744 36.85 15.3513 37.1898 15.3513 37.5943C15.3513 37.9462 15.2785 38.2779 15.1329 38.5853C14.9872 38.8927 14.7769 39.1597 14.4978 39.3822C14.2187 39.6087 13.8749 39.7907 13.4704 39.9202C13.0659 40.0496 12.6088 40.1184 12.0951 40.1184C11.6663 40.1184 11.2699 40.0658 10.9058 39.9606L10.8977 39.9444Z" fill="currentColor"></path>
  <path d="M20.5122 32.6594H17.8506V31.3043H24.63V32.6594H21.9684V39.9404H20.5082V32.6594H20.5122Z" fill="currentColor"></path>
  <path d="M26.3408 38.4236H27.9548V39.9405H26.3408V38.4236Z" fill="currentColor"></path>
  <path d="M163.382 38.6582H164.972V32.7889C164.867 32.8415 164.749 32.894 164.62 32.9385C164.49 32.9871 164.357 33.0275 164.219 33.0599C164.078 33.0963 163.94 33.1287 163.799 33.1489C163.657 33.1691 163.528 33.1812 163.402 33.1812V31.8666C163.738 31.8545 164.041 31.8059 164.312 31.7129C164.588 31.6199 164.818 31.4864 165.012 31.3044H166.384V38.6582H167.795V39.9405H163.374V38.6582H163.382Z" fill="currentColor"></path>
  <path d="M172.503 40.0457C172.285 40.0052 172.083 39.9526 171.897 39.8879C171.706 39.8232 171.532 39.7504 171.379 39.6654C171.225 39.5805 171.088 39.4955 170.97 39.4025L171.67 38.3265C171.868 38.4721 172.095 38.5935 172.358 38.6987C172.617 38.8038 172.916 38.8564 173.256 38.8564C173.595 38.8564 173.879 38.7877 174.146 38.6461C174.413 38.5045 174.643 38.3063 174.837 38.0434C175.031 37.7845 175.185 37.473 175.294 37.1049C175.408 36.7368 175.472 36.3242 175.493 35.8672C175.347 36.0006 175.193 36.122 175.023 36.2353C174.857 36.3485 174.679 36.4456 174.493 36.5265C174.303 36.6155 174.101 36.6802 173.891 36.7287C173.676 36.7773 173.454 36.8016 173.219 36.8016C172.811 36.8016 172.434 36.7409 172.099 36.6236C171.759 36.5063 171.472 36.3323 171.233 36.1058C170.99 35.8793 170.8 35.5961 170.671 35.2564C170.537 34.9206 170.473 34.5283 170.473 34.0833C170.473 33.6384 170.554 33.2541 170.719 32.8941C170.885 32.5341 171.108 32.2226 171.395 31.9597C171.674 31.7008 172.006 31.5026 172.386 31.357C172.766 31.2154 173.171 31.1426 173.599 31.1426C174.093 31.1426 174.546 31.2316 174.955 31.4136C175.363 31.5956 175.715 31.8626 176.01 32.2266C176.302 32.5866 176.528 33.0397 176.69 33.5777C176.852 34.1197 176.933 34.7507 176.933 35.4707C176.933 36.2312 176.831 36.8986 176.633 37.4771C176.435 38.0555 176.164 38.5369 175.828 38.9252C175.488 39.3176 175.096 39.6088 174.639 39.807C174.182 40.0052 173.705 40.1023 173.199 40.1023C172.956 40.1023 172.726 40.0821 172.507 40.0416L172.503 40.0457ZM174.093 35.5152C174.291 35.4667 174.481 35.406 174.655 35.3251C174.829 35.2483 174.987 35.1593 175.133 35.0582C175.274 34.957 175.391 34.8478 175.484 34.7386C175.452 34.322 175.387 33.966 175.282 33.6707C175.177 33.3754 175.039 33.1327 174.87 32.9426C174.7 32.7565 174.501 32.619 174.275 32.5341C174.048 32.4451 173.798 32.4046 173.527 32.4046C172.997 32.4046 172.588 32.5462 172.297 32.8334C172.006 33.1165 171.86 33.521 171.86 34.0429C171.86 34.2653 171.888 34.4757 171.945 34.6658C172.002 34.8559 172.095 35.0177 172.224 35.1552C172.35 35.2928 172.515 35.3979 172.726 35.4788C172.936 35.5557 173.191 35.5961 173.494 35.5961C173.701 35.5961 173.903 35.5719 174.101 35.5233L174.093 35.5152Z" fill="currentColor"></path>
  <path d="M179.756 39.7504C179.756 39.4389 179.788 39.1275 179.857 38.82C179.926 38.5126 180.059 38.1971 180.257 37.8776C180.452 37.558 180.723 37.2304 181.079 36.8946C181.431 36.5589 181.892 36.207 182.462 35.8429C182.794 35.6285 183.073 35.4384 183.303 35.2726C183.534 35.1067 183.724 34.9409 183.874 34.7831C184.023 34.6254 184.129 34.4595 184.197 34.2896C184.266 34.1197 184.298 33.9215 184.298 33.6991C184.298 33.4968 184.266 33.3188 184.201 33.1651C184.137 33.0114 184.048 32.8779 183.926 32.7727C183.809 32.6716 183.667 32.5907 183.502 32.5381C183.336 32.4815 183.15 32.4572 182.947 32.4572C182.567 32.4572 182.203 32.5664 181.851 32.7889C181.499 33.0114 181.188 33.3229 180.913 33.7274L179.829 32.9831C180.003 32.7161 180.197 32.4734 180.411 32.2469C180.626 32.0244 180.864 31.8303 181.127 31.6644C181.39 31.5026 181.677 31.3732 181.989 31.2842C182.3 31.1952 182.644 31.1507 183.016 31.1507C183.437 31.1507 183.817 31.2114 184.153 31.3287C184.489 31.446 184.772 31.6118 185.006 31.8222C185.237 32.0406 185.415 32.2954 185.54 32.5988C185.666 32.8981 185.726 33.2339 185.726 33.602C185.726 33.8649 185.698 34.1116 185.641 34.3463C185.585 34.5809 185.48 34.8155 185.326 35.042C185.172 35.2726 184.966 35.5072 184.703 35.7458C184.44 35.9845 184.1 36.2312 183.688 36.4942C183.344 36.7126 183.04 36.9148 182.777 37.113C182.515 37.3113 182.296 37.4973 182.114 37.6753C181.928 37.8533 181.782 38.0232 181.677 38.189C181.572 38.3508 181.499 38.5126 181.459 38.6663H185.771V39.9486H179.756V39.7625V39.7504Z" fill="currentColor"></path>
  <path d="M188.785 39.7504C188.785 39.4389 188.818 39.1275 188.886 38.82C188.955 38.5126 189.089 38.1971 189.287 37.8776C189.481 37.558 189.752 37.2304 190.108 36.8946C190.46 36.5589 190.921 36.207 191.491 35.8429C191.823 35.6285 192.102 35.4384 192.333 35.2726C192.563 35.1067 192.753 34.9409 192.903 34.7831C193.053 34.6254 193.158 34.4595 193.227 34.2896C193.295 34.1197 193.328 33.9215 193.328 33.6991C193.328 33.4968 193.295 33.3188 193.231 33.1651C193.166 33.0114 193.077 32.8779 192.956 32.7727C192.838 32.6716 192.697 32.5907 192.531 32.5381C192.365 32.4815 192.179 32.4572 191.977 32.4572C191.596 32.4572 191.232 32.5664 190.88 32.7889C190.529 33.0114 190.217 33.3229 189.942 33.7274L188.858 32.9831C189.032 32.7161 189.226 32.4734 189.44 32.2469C189.655 32.0244 189.893 31.8303 190.156 31.6644C190.419 31.5026 190.707 31.3732 191.018 31.2842C191.329 31.1952 191.673 31.1507 192.045 31.1507C192.466 31.1507 192.846 31.2114 193.182 31.3287C193.518 31.446 193.801 31.6118 194.036 31.8222C194.266 32.0406 194.444 32.2954 194.57 32.5988C194.691 32.8981 194.756 33.2339 194.756 33.602C194.756 33.8649 194.727 34.1116 194.671 34.3463C194.614 34.5809 194.509 34.8155 194.359 35.042C194.205 35.2726 193.999 35.5072 193.736 35.7458C193.473 35.9845 193.134 36.2312 192.721 36.4942C192.377 36.7126 192.074 36.9148 191.811 37.113C191.552 37.3072 191.329 37.4973 191.147 37.6753C190.961 37.8533 190.816 38.0232 190.711 38.189C190.605 38.3508 190.533 38.5126 190.492 38.6663H194.804V39.9486H188.789V39.7625L188.785 39.7504Z" fill="currentColor"></path>
</svg>